<?xml version="1.0" encoding="utf-8"?>
<!-- Generator: Adobe Illustrator 25.2.1, SVG Export Plug-In . SVG Version: 6.00 Build 0)  -->
<svg version="1.1" id="Layer_1" xmlns="http://www.w3.org/2000/svg" xmlns:xlink="http://www.w3.org/1999/xlink" x="0px" y="0px"
	 viewBox="0 0 1087.12 317.14" style="enable-background:new 0 0 1087.12 317.14;" xml:space="preserve">
<g id="Logo_-_Quicksand">
	<g>
		<path style="fill: #fff;" d="M397.48,238.68c-1.56,1.56-3.48,2.34-5.73,2.34c-2.43,0-4.39-0.74-5.86-2.21c-1.48-1.47-2.21-3.43-2.21-5.86V66.79
			c0-2.43,0.78-4.38,2.34-5.86c1.56-1.47,3.56-2.21,5.99-2.21c2.25,0,4.17,0.78,5.73,2.34s2.34,3.48,2.34,5.73v166.16
			C399.9,235.21,399.04,237.12,397.48,238.68z"/>
		<path style="fill: #fff;" d="M543.19,119.01c7.55,9.47,11.33,22.01,11.33,37.63v76.57c0,2.26-0.78,4.13-2.34,5.6c-1.56,1.48-3.39,2.21-5.47,2.21
			c-2.26,0-4.13-0.74-5.6-2.21c-1.48-1.47-2.21-3.34-2.21-5.6v-75.79c0-11.28-2.82-20.44-8.46-27.48
			c-5.64-7.03-14.37-10.55-26.17-10.55c-7.47,0-14.54,1.74-21.23,5.21c-6.69,3.48-12.11,8.12-16.28,13.93
			c-4.17,5.82-6.25,12.11-6.25,18.88v75.79c0,2.26-0.74,4.13-2.21,5.6c-1.48,1.48-3.35,2.21-5.6,2.21c-2.26,0-4.13-0.74-5.6-2.21
			c-1.48-1.47-2.21-3.34-2.21-5.6V116.53c0-2.25,0.74-4.12,2.21-5.6c1.47-1.47,3.34-2.21,5.6-2.21c2.25,0,4.12,0.74,5.6,2.21
			c1.47,1.48,2.21,3.35,2.21,5.6v14.32c4.69-7.46,11.42-13.67,20.18-18.62c8.77-4.95,17.75-7.42,26.96-7.42
			C523.79,104.81,535.64,109.55,543.19,119.01z"/>
		<path style="fill: #fff;" d="M709.09,50.51c1.47,1.48,2.21,3.35,2.21,5.6v177.1c0,2.26-0.74,4.13-2.21,5.6c-1.48,1.48-3.34,2.21-5.6,2.21
			c-2.26,0-4.13-0.74-5.6-2.21c-1.48-1.47-2.21-3.34-2.21-5.6v-18.23c-4.34,7.99-10.81,14.76-19.4,20.31
			c-8.59,5.56-18.1,8.33-28.52,8.33c-11.46,0-21.84-3-31.12-8.99c-9.29-5.99-16.63-14.28-22.01-24.87
			c-5.38-10.59-8.07-22.48-8.07-35.68c0-13.02,2.69-24.83,8.07-35.42c5.38-10.59,12.72-18.88,22.01-24.87
			c9.29-5.99,19.57-8.99,30.86-8.99c10.24,0,19.7,2.56,28.39,7.68c8.68,5.12,15.28,11.76,19.79,19.92V56.11
			c0-2.25,0.74-4.12,2.21-5.6c1.47-1.47,3.34-2.21,5.6-2.21C705.75,48.3,707.61,49.04,709.09,50.51z M673.67,222.01
			c7.2-4.69,12.85-11.24,16.93-19.66c4.08-8.42,6.12-17.84,6.12-28.26c0-10.24-2.04-19.53-6.12-27.87
			c-4.08-8.33-9.73-14.89-16.93-19.66c-7.21-4.77-15.33-7.16-24.35-7.16c-9.03,0-17.15,2.39-24.35,7.16
			c-7.21,4.78-12.85,11.33-16.93,19.66c-4.08,8.33-6.12,17.62-6.12,27.87c0,10.42,2.04,19.79,6.12,28.13
			c4.08,8.33,9.72,14.89,16.93,19.66c7.2,4.78,15.32,7.16,24.35,7.16C658.35,229.04,666.46,226.7,673.67,222.01z"/>
		<path style="fill: #fff;" d="M751.41,85.67c-1.91-1.65-2.87-4.04-2.87-7.16v-2.6c0-3.13,1-5.51,3-7.16c1.99-1.65,4.73-2.47,8.2-2.47
			c6.94,0,10.42,3.21,10.42,9.64v2.6c0,3.12-0.91,5.51-2.73,7.16c-1.82,1.65-4.47,2.47-7.94,2.47
			C756.01,88.15,753.32,87.32,751.41,85.67z M765.08,238.81c-1.48,1.48-3.34,2.21-5.6,2.21c-2.26,0-4.13-0.74-5.6-2.21
			c-1.48-1.47-2.21-3.34-2.21-5.6v-119.8c0-2.25,0.74-4.12,2.21-5.6c1.47-1.47,3.34-2.21,5.6-2.21c2.25,0,4.12,0.74,5.6,2.21
			c1.47,1.48,2.21,3.34,2.21,5.6v119.8C767.3,235.47,766.56,237.34,765.08,238.81z"/>
		<path style="fill: #fff;" d="M926.03,110.15c1.47,1.48,2.21,3.43,2.21,5.86v112.77c0,13.54-2.82,25.13-8.46,34.77c-5.64,9.64-13.37,16.97-23.18,22.01
			c-9.81,5.03-21.05,7.55-33.73,7.55c-6.08,0-12.46-0.78-19.14-2.34c-6.69-1.56-12.42-3.56-17.19-5.99
			c-4.78-2.43-7.51-4.95-8.2-7.55c-1.22-1.22-1.82-2.6-1.82-4.17c0-1.74,0.78-3.12,2.34-4.17c0.69-0.52,1.56-0.78,2.6-0.78
			c1.04,0,3.04,0.61,5.99,1.82l5.47,2.34c10.76,4.17,20.84,6.25,30.21,6.25c15.45,0,27.56-4.39,36.33-13.15
			c8.77-8.77,13.15-20.62,13.15-35.55v-16.15c-4.34,9.38-11.2,16.71-20.58,22.01c-9.38,5.3-19.19,7.94-29.43,7.94
			c-11.98,0-22.79-3-32.42-8.99s-17.23-14.28-22.79-24.87c-5.56-10.59-8.33-22.48-8.33-35.68c0-13.02,2.78-24.83,8.33-35.42
			c5.55-10.59,13.15-18.88,22.79-24.87c9.64-5.99,20.36-8.99,32.16-8.99c10.94,0,20.97,2.73,30.08,8.2
			c9.12,5.47,15.84,12.03,20.18,19.66v-16.67c0-2.25,0.74-4.17,2.21-5.73c1.47-1.56,3.34-2.34,5.6-2.34
			C922.69,107.94,924.56,108.68,926.03,110.15z M889.57,222.14c7.55-4.6,13.45-11.11,17.71-19.53c4.25-8.42,6.38-17.93,6.38-28.52
			c0-10.59-2.13-20.05-6.38-28.39c-4.26-8.33-10.16-14.8-17.71-19.4c-7.55-4.6-16.11-6.9-25.65-6.9c-9.38,0-17.84,2.39-25.39,7.16
			c-7.55,4.78-13.46,11.33-17.71,19.66c-4.26,8.33-6.38,17.62-6.38,27.87c0,10.42,2.12,19.79,6.38,28.13
			c4.25,8.33,10.16,14.89,17.71,19.66c7.55,4.78,16.02,7.16,25.39,7.16C873.47,229.04,882.02,226.75,889.57,222.14z"/>
		<path style="fill: #fff;" d="M1078.52,209.77c-5.73,10.59-13.63,18.88-23.7,24.87c-10.07,5.99-21.27,8.99-33.6,8.99c-12.33,0-23.53-3-33.6-8.99
			c-10.07-5.99-17.97-14.28-23.7-24.87c-5.73-10.59-8.59-22.4-8.59-35.42c0-13.02,2.87-24.83,8.59-35.42
			c5.73-10.59,13.63-18.92,23.7-25c10.07-6.08,21.27-9.12,33.6-9.12c12.33,0,23.53,3.04,33.6,9.12c10.07,6.08,17.97,14.41,23.7,25
			c5.73,10.59,8.59,22.4,8.59,35.42C1087.12,187.37,1084.25,199.18,1078.52,209.77z M1064.98,146.22
			c-4.34-8.33-10.38-14.89-18.1-19.66c-7.73-4.77-16.28-7.16-25.65-7.16c-9.38,0-17.88,2.39-25.52,7.16
			c-7.64,4.78-13.67,11.33-18.1,19.66c-4.43,8.33-6.64,17.71-6.64,28.13c0,10.25,2.21,19.53,6.64,27.87
			c4.43,8.33,10.46,14.89,18.1,19.66c7.64,4.78,16.15,7.16,25.52,7.16c9.38,0,17.93-2.34,25.65-7.03
			c7.72-4.69,13.76-11.2,18.1-19.53c4.34-8.33,6.51-17.71,6.51-28.13C1071.49,163.93,1069.32,154.56,1064.98,146.22z"/>
	</g>
	<path style="fill: #fff;" d="M160.26,0C71.75,0,0,70.99,0,158.57s71.75,158.57,160.26,158.57s160.26-70.99,160.26-158.57S248.77,0,160.26,0z
		 M160.87,291.93c-74.6,0-135.07-59.84-135.07-133.65S86.27,24.63,160.87,24.63c74.54,0,134.97,59.74,135.07,133.47l-85.18-83.11
		v27.74c-13.41-11.7-31.02-18.81-50.3-18.81c-18.77,0-35.95,6.73-49.22,17.88V75.04l-85.31,83.24l85.31,83.24V216.6
		c13.27,11.15,30.45,17.88,49.22,17.88c19.29,0,36.89-7.1,50.3-18.81v25.79l85.18-83.11C295.89,232.13,235.44,291.93,160.87,291.93z
		 M227.87,124.28l36.21,35.33l-37.17,36.27c6.13-10.85,9.63-23.36,9.63-36.67C236.54,146.6,233.4,134.72,227.87,124.28z
		 M211.35,158.87c0,27.84-22.81,50.41-50.95,50.41s-50.95-22.57-50.95-50.41c0-27.84,22.81-50.41,50.95-50.41
		S211.35,131.03,211.35,158.87z M92.83,193.73l-34.92-34.07l34-33.18c-4.83,9.89-7.54,20.99-7.54,32.72
		C84.37,171.65,87.43,183.39,92.83,193.73z"/>
</g>
</svg>
