<svg id="Layer_1" data-name="Layer 1" xmlns="http://www.w3.org/2000/svg" xmlns:xlink="http://www.w3.org/1999/xlink" viewBox="0 0 227.56 186.44"><defs><style>.cls-1,.cls-36{fill:none;}.cls-1{clip-rule:evenodd;}.cls-2{clip-path:url(#clip-path);}.cls-3{fill:url(#linear-gradient);}.cls-4{clip-path:url(#clip-path-2);}.cls-5{fill:url(#linear-gradient-2);}.cls-6{clip-path:url(#clip-path-3);}.cls-7{fill:url(#linear-gradient-3);}.cls-8{clip-path:url(#clip-path-4);}.cls-9{fill:url(#linear-gradient-4);}.cls-10{fill:#7c82f6;}.cls-11{clip-path:url(#clip-path-5);}.cls-12{fill:url(#linear-gradient-5);}.cls-13{clip-path:url(#clip-path-6);}.cls-14{fill:url(#linear-gradient-6);}.cls-15{clip-path:url(#clip-path-7);}.cls-16{fill:url(#linear-gradient-7);}.cls-17{clip-path:url(#clip-path-8);}.cls-18{fill:url(#linear-gradient-8);}.cls-19{fill:#fff;}.cls-20{clip-path:url(#clip-path-9);}.cls-21{fill:url(#linear-gradient-9);}.cls-22{clip-path:url(#clip-path-10);}.cls-23{fill:url(#linear-gradient-10);}.cls-24{clip-path:url(#clip-path-11);}.cls-25{fill:url(#linear-gradient-11);}.cls-26{clip-path:url(#clip-path-12);}.cls-27{fill:url(#linear-gradient-12);}.cls-28{clip-path:url(#clip-path-13);}.cls-29{fill:url(#linear-gradient-13);}.cls-30{clip-path:url(#clip-path-14);}.cls-31{fill:url(#linear-gradient-14);}.cls-32{clip-path:url(#clip-path-15);}.cls-33{fill:url(#linear-gradient-15);}.cls-34{clip-path:url(#clip-path-16);}.cls-35{fill:url(#linear-gradient-16);}.cls-36{stroke:#000;stroke-miterlimit:10;}.cls-37{clip-path:url(#clip-path-17);}.cls-38{fill:url(#linear-gradient-17);}.cls-39{clip-path:url(#clip-path-18);}.cls-40{fill:url(#linear-gradient-18);}.cls-41{fill:#959af8;}.cls-42{clip-path:url(#clip-path-19);}.cls-43{fill:url(#linear-gradient-19);}</style><clipPath id="clip-path" transform="translate(-846.34 -446.8)"><path id="SVGID" class="cls-1" d="M847.69,559.84c0,2.1,1.37,4.2,4.13,5.79l0-3.91c-2.76-1.59-4.14-3.69-4.13-5.79Z"/></clipPath><linearGradient id="linear-gradient" x1="228.1" y1="260.75" x2="-76.3" y2="61.89" gradientUnits="userSpaceOnUse"><stop offset="0" stop-color="#858bf2"/><stop offset="1" stop-color="#1d2297"/></linearGradient><clipPath id="clip-path-2" transform="translate(-846.34 -446.8)"><path id="SVGID-2" data-name="SVGID" class="cls-1" d="M1068.44,578.43l0,3.91c2.71-1.58,4.06-3.65,4.07-5.72l0-3.91C1072.51,574.78,1071.15,576.85,1068.44,578.43Z"/></clipPath><linearGradient id="linear-gradient-2" x1="149.89" y1="174.38" x2="239.52" y2="121.67" xlink:href="#linear-gradient"/><clipPath id="clip-path-3" transform="translate(-846.34 -446.8)"><polygon id="SVGID-3" data-name="SVGID" class="cls-1" points="984.72 626.95 984.7 630.86 1068.42 582.34 1068.44 578.43 984.72 626.95"/></clipPath><linearGradient id="linear-gradient-3" x1="103.37" y1="200.84" x2="252.07" y2="117.65" xlink:href="#linear-gradient"/><clipPath id="clip-path-4" transform="translate(-846.34 -446.8)"><polygon id="SVGID-4" data-name="SVGID" class="cls-1" points="851.82 565.63 964.81 630.86 964.83 626.95 851.85 561.72 851.82 565.63"/></clipPath><linearGradient id="linear-gradient-4" x1="278.65" y1="289.1" x2="-93.39" y2="49.36" xlink:href="#linear-gradient"/><clipPath id="clip-path-5" transform="translate(-846.34 -446.8)"><path id="SVGID-5" data-name="SVGID" class="cls-1" d="M935.51,501.68,851.79,550.2c-5.45,3.18-5.43,8.36.06,11.52l113,65.23c5.49,3.17,14.44,3.17,19.89,0l83.72-48.52c5.46-3.17,5.43-8.35-.06-11.52l-113-65.24a22,22,0,0,0-19.88,0Z"/></clipPath><linearGradient id="linear-gradient-5" x1="3.17" y1="117.91" x2="224.39" y2="117.91" gradientUnits="userSpaceOnUse"><stop offset="0" stop-color="#9aa0f2"/><stop offset="1" stop-color="#ccd1f7"/></linearGradient><clipPath id="clip-path-6" transform="translate(-846.34 -446.8)"><path id="SVGID-6" data-name="SVGID" class="cls-1" d="M936.69,503.7,853,552.23c-1.85,1.07-2.91,2.43-2.91,3.71s1.08,2.67,3,3.75l113,65.23a19.68,19.68,0,0,0,17.55,0l83.71-48.53c1.86-1.07,2.91-2.43,2.91-3.71s-1.08-2.67-3-3.75l-113-65.24a19.68,19.68,0,0,0-17.53,0Z"/></clipPath><linearGradient id="linear-gradient-6" x1="128.2" y1="17.72" x2="84.38" y2="320.92" xlink:href="#linear-gradient"/><clipPath id="clip-path-7" transform="translate(-846.34 -446.8)"><polygon id="SVGID-7" data-name="SVGID" class="cls-1" points="1039.95 565.67 1039.92 575.75 971.59 615.42 971.62 605.34 1039.95 565.67"/></clipPath><linearGradient id="linear-gradient-7" x1="248.54" y1="165.36" x2="78.24" y2="124.04" xlink:href="#linear-gradient"/><clipPath id="clip-path-8" transform="translate(-846.34 -446.8)"><polygon id="SVGID-8" data-name="SVGID" class="cls-1" points="971.62 605.34 971.59 615.42 876.19 560.34 876.22 550.26 971.62 605.34"/></clipPath><linearGradient id="linear-gradient-8" x1="216.98" y1="198.27" x2="-20.77" y2="92.14" xlink:href="#linear-gradient"/><clipPath id="clip-path-9" transform="translate(-846.34 -446.8)"><polygon id="SVGID-9" data-name="SVGID" class="cls-1" points="1023.51 506.2 1023.48 564.91 973.11 594.19 973.13 535.47 1023.51 506.2"/></clipPath><linearGradient id="linear-gradient-9" x1="130.05" y1="103.39" x2="173.89" y2="103.39" gradientUnits="userSpaceOnUse"><stop offset="0" stop-color="#fecf58"/><stop offset="1" stop-color="#fefaba"/></linearGradient><clipPath id="clip-path-10" transform="translate(-846.34 -446.8)"><polygon id="SVGID-10" data-name="SVGID" class="cls-1" points="973.13 535.47 973.11 594.19 896.15 549.75 896.17 491.04 973.13 535.47"/></clipPath><linearGradient id="linear-gradient-10" x1="54.82" y1="95.81" x2="121.78" y2="95.81" xlink:href="#linear-gradient-9"/><clipPath id="clip-path-11" transform="translate(-846.34 -446.8)"><polygon id="SVGID-11" data-name="SVGID" class="cls-1" points="915.44 481.59 970.92 449.34 945.88 446.8 890.39 479.05 915.44 481.59"/></clipPath><linearGradient id="linear-gradient-11" x1="44.05" y1="17.39" x2="124.59" y2="17.39" gradientUnits="userSpaceOnUse"><stop offset="0" stop-color="#a4aaf3"/><stop offset="1" stop-color="#d1d6f8"/></linearGradient><clipPath id="clip-path-12" transform="translate(-846.34 -446.8)"><polygon id="SVGID-12" data-name="SVGID" class="cls-1" points="949.02 500.98 1004.51 468.73 970.93 449.34 915.44 481.59 949.02 500.98"/></clipPath><linearGradient id="linear-gradient-12" x1="69.1" y1="28.35" x2="158.17" y2="28.35" xlink:href="#linear-gradient-5"/><clipPath id="clip-path-13" transform="translate(-846.34 -446.8)"><polygon id="SVGID-13" data-name="SVGID" class="cls-1" points="973.99 527.32 1029.48 495.07 1004.51 468.73 949.02 500.98 973.99 527.32"/></clipPath><linearGradient id="linear-gradient-13" x1="102.68" y1="51.22" x2="183.14" y2="51.22" gradientUnits="userSpaceOnUse"><stop offset="0" stop-color="#adb3f4"/><stop offset="1" stop-color="#d6daf9"/></linearGradient><clipPath id="clip-path-14" transform="translate(-846.34 -446.8)"><polygon id="SVGID-14" data-name="SVGID" class="cls-1" points="973.77 541.39 1029.26 509.14 1029.48 495.07 973.99 527.32 973.77 541.39"/></clipPath><linearGradient id="linear-gradient-14" x1="78.64" y1="94.24" x2="235.58" y2="47.53" xlink:href="#linear-gradient"/><clipPath id="clip-path-15" transform="translate(-846.34 -446.8)"><polygon id="SVGID-15" data-name="SVGID" class="cls-1" points="915.44 481.59 890.39 479.05 890.17 493.12 915.18 507.56 948.76 526.95 973.77 541.39 973.99 527.32 949.02 500.98 915.44 481.59"/></clipPath><linearGradient id="linear-gradient-15" x1="174" y1="81.94" x2="-34.94" y2="38.08" xlink:href="#linear-gradient"/><clipPath id="clip-path-16" transform="translate(-846.34 -446.8)"><path id="SVGID-16" data-name="SVGID" class="cls-1" d="M910.26,503.42l0,56a2.61,2.61,0,0,1-1.53,2.15,8.22,8.22,0,0,1-7.48,0,2.61,2.61,0,0,1-1.56-2.18l0-56a2.66,2.66,0,0,0,1.56,2.19,8.28,8.28,0,0,0,7.48,0,2.67,2.67,0,0,0,1.54-2.16"/></clipPath><linearGradient id="linear-gradient-16" x1="58.62" y1="115.63" x2="58.62" y2="56.6" gradientUnits="userSpaceOnUse"><stop offset="0" stop-color="#00fee0"/><stop offset="1" stop-color="#1d2297"/></linearGradient><clipPath id="clip-path-17" transform="translate(-846.34 -446.8)"><path id="SVGID-17" data-name="SVGID" class="cls-1" d="M931.58,515.52l0,56a2.61,2.61,0,0,1-1.53,2.15,8.22,8.22,0,0,1-7.48,0,2.61,2.61,0,0,1-1.56-2.18l0-56a2.65,2.65,0,0,0,1.56,2.18,8.22,8.22,0,0,0,7.48,0,2.66,2.66,0,0,0,1.54-2.15"/></clipPath><linearGradient id="linear-gradient-17" x1="79.94" y1="127.72" x2="79.94" y2="68.68" xlink:href="#linear-gradient-16"/><clipPath id="clip-path-18" transform="translate(-846.34 -446.8)"><path id="SVGID-18" data-name="SVGID" class="cls-1" d="M953.86,528.33l0,56a2.65,2.65,0,0,1-1.54,2.15,8.22,8.22,0,0,1-7.48,0,2.68,2.68,0,0,1-1.56-2.18l0-56a2.67,2.67,0,0,0,1.57,2.19,8.26,8.26,0,0,0,7.47,0,2.63,2.63,0,0,0,1.54-2.16"/></clipPath><linearGradient id="linear-gradient-18" x1="102.22" y1="140.53" x2="102.22" y2="81.5" xlink:href="#linear-gradient-16"/><clipPath id="clip-path-19" transform="translate(-846.34 -446.8)"><polygon id="SVGID-19" data-name="SVGID" class="cls-1" points="911.03 492.68 892.79 490.83 892.75 503.21 956.03 539.74 956.07 527.36 937.87 508.17 911.03 492.68"/></clipPath><linearGradient id="linear-gradient-19" x1="169.4" y1="114.6" x2="11.67" y2="34.95" xlink:href="#linear-gradient"/></defs><g class="cls-2"><rect class="cls-3" x="1.35" y="109.12" width="4.16" height="9.7"/></g><g class="cls-4"><rect class="cls-5" x="222.08" y="125.9" width="4.1" height="9.63"/></g><g class="cls-6"><rect class="cls-7" x="138.36" y="131.62" width="83.74" height="52.44"/></g><g class="cls-8"><rect class="cls-9" x="5.49" y="114.92" width="113.01" height="69.14"/></g><path class="cls-10" d="M984.72,627l0,3.91c-5.46,3.17-14.4,3.17-19.89,0l0-3.91c5.49,3.17,14.44,3.17,19.89,0" transform="translate(-846.34 -446.8)"/><g class="cls-11"><rect class="cls-12" y="52.5" width="227.56" height="130.82"/></g><g class="cls-13"><rect class="cls-14" x="3.72" y="54.84" width="220.11" height="125.35"/></g><g class="cls-15"><rect class="cls-16" x="125.26" y="118.86" width="68.36" height="49.75"/></g><g class="cls-17"><rect class="cls-18" x="29.85" y="103.45" width="95.44" height="65.16"/></g><polygon class="cls-19" points="193.62 118.86 125.29 158.54 29.88 103.45 98.21 63.78 193.62 118.86"/><polygon class="cls-10" points="193.62 118.86 125.29 158.54 29.88 103.45 98.21 63.78 193.62 118.86"/><g class="cls-20"><rect class="cls-21" x="126.77" y="59.4" width="50.4" height="87.99"/></g><g class="cls-22"><rect class="cls-23" x="49.81" y="44.23" width="76.99" height="103.15"/></g><g class="cls-24"><rect class="cls-25" x="44.05" width="80.54" height="34.78"/></g><g class="cls-26"><rect class="cls-27" x="69.1" y="2.54" width="89.07" height="51.64"/></g><g class="cls-28"><rect class="cls-29" x="102.68" y="21.92" width="80.46" height="58.59"/></g><g class="cls-30"><rect class="cls-31" x="127.44" y="48.27" width="55.71" height="46.32"/></g><g class="cls-32"><rect class="cls-33" x="43.83" y="32.25" width="83.82" height="62.34"/></g><g class="cls-34"><rect class="cls-35" x="53.32" y="56.59" width="10.6" height="59.33"/></g><path class="cls-19" d="M907.73,500.52c2.07,1.2,2.08,3.14,0,4.33a8.22,8.22,0,0,1-7.48,0c-2.07-1.19-2.08-3.13,0-4.33a8.22,8.22,0,0,1,7.48,0" transform="translate(-846.34 -446.8)"/><path class="cls-36" d="M907.73,500.52c2.07,1.2,2.08,3.14,0,4.33a8.22,8.22,0,0,1-7.48,0c-2.07-1.19-2.08-3.13,0-4.33A8.22,8.22,0,0,1,907.73,500.52Z" transform="translate(-846.34 -446.8)"/><g class="cls-37"><rect class="cls-38" x="74.64" y="68.68" width="10.6" height="59.33"/></g><path class="cls-19" d="M930,513.34c2.07,1.19,2.08,3.13,0,4.33a8.28,8.28,0,0,1-7.48,0c-2.08-1.2-2.08-3.14,0-4.33a8.24,8.24,0,0,1,7.49,0" transform="translate(-846.34 -446.8)"/><path class="cls-36" d="M930,513.34c2.07,1.19,2.08,3.13,0,4.33a8.28,8.28,0,0,1-7.48,0c-2.08-1.2-2.08-3.14,0-4.33A8.24,8.24,0,0,1,930,513.34Z" transform="translate(-846.34 -446.8)"/><g class="cls-39"><rect class="cls-40" x="96.92" y="81.5" width="10.6" height="59.33"/></g><path class="cls-19" d="M952.3,526.15c2.07,1.2,2.08,3.14,0,4.34a8.28,8.28,0,0,1-7.48,0c-2.07-1.2-2.08-3.14,0-4.34a8.22,8.22,0,0,1,7.48,0" transform="translate(-846.34 -446.8)"/><path class="cls-36" d="M952.3,526.15c2.07,1.2,2.08,3.14,0,4.34a8.28,8.28,0,0,1-7.48,0c-2.07-1.2-2.08-3.14,0-4.34A8.22,8.22,0,0,1,952.3,526.15Z" transform="translate(-846.34 -446.8)"/><polygon class="cls-41" points="64.69 45.87 73.75 40.61 55.51 38.76 46.45 44.02 64.69 45.87"/><polygon class="cls-41" points="91.53 61.37 100.58 56.11 73.75 40.61 64.69 45.87 91.53 61.37"/><polygon class="cls-41" points="109.73 80.56 118.78 75.3 100.59 56.11 91.54 61.37 109.73 80.56"/><polygon class="cls-10" points="109.69 92.94 118.75 87.68 118.78 75.3 109.73 80.56 109.69 92.94"/><g class="cls-42"><rect class="cls-43" x="46.42" y="44.03" width="63.31" height="48.91"/></g></svg>