<svg id="Layer_1" data-name="Layer 1" xmlns="http://www.w3.org/2000/svg" xmlns:xlink="http://www.w3.org/1999/xlink" viewBox="0 0 185.15 314.72"><defs><style>.cls-1{fill:none;clip-rule:evenodd;}.cls-2{clip-path:url(#clip-path);}.cls-3{fill:url(#linear-gradient);}.cls-4{clip-path:url(#clip-path-2);}.cls-5{fill:url(#linear-gradient-2);}.cls-6{fill:#7c82f6;}.cls-7{clip-path:url(#clip-path-3);}.cls-8{fill:url(#linear-gradient-3);}.cls-9{fill:#00fee0;}.cls-10{clip-path:url(#clip-path-4);}.cls-11{fill:url(#linear-gradient-4);}.cls-12{clip-path:url(#clip-path-5);}.cls-13{fill:url(#linear-gradient-5);}.cls-14{clip-path:url(#clip-path-6);}.cls-15{fill:url(#linear-gradient-6);}.cls-16{clip-path:url(#clip-path-7);}.cls-17{fill:url(#linear-gradient-7);}.cls-18{clip-path:url(#clip-path-8);}.cls-19{fill:url(#linear-gradient-8);}.cls-20{clip-path:url(#clip-path-9);}.cls-21{fill:url(#linear-gradient-9);}.cls-22{clip-path:url(#clip-path-10);}.cls-23{fill:url(#linear-gradient-10);}.cls-24{clip-path:url(#clip-path-11);}.cls-25{fill:url(#linear-gradient-11);}.cls-26{clip-path:url(#clip-path-12);}.cls-27{fill:url(#linear-gradient-12);}.cls-28{clip-path:url(#clip-path-13);}.cls-29{fill:url(#linear-gradient-13);}.cls-30{clip-path:url(#clip-path-14);}.cls-31{fill:url(#linear-gradient-14);}.cls-32{clip-path:url(#clip-path-15);}.cls-33{fill:url(#linear-gradient-15);}.cls-34{clip-path:url(#clip-path-16);}.cls-35{fill:url(#linear-gradient-16);}</style><clipPath id="clip-path" transform="translate(-867.54 -383.06)"><path id="SVGID" class="cls-1" d="M1052.21,609.48v34a3,3,0,0,1-1.52,2.64L965,695.88,963,697a5.16,5.16,0,0,1-2.93.7V609.48Z"/></clipPath><linearGradient id="linear-gradient" x1="13" y1="313.66" x2="272.44" y2="224.67" gradientUnits="userSpaceOnUse"><stop offset="0" stop-color="#858bf2"/><stop offset="1" stop-color="#1d2297"/></linearGradient><clipPath id="clip-path-2" transform="translate(-867.54 -383.06)"><path id="SVGID-2" data-name="SVGID" class="cls-1" d="M960.12,609.48v88.24a5.2,5.2,0,0,1-2.31-.69l-2.57-1.48-85.69-49.48a3,3,0,0,1-1.52-2.62h0v-34Z"/></clipPath><linearGradient id="linear-gradient-2" x1="164.88" y1="308.35" x2="-64.54" y2="235.06" xlink:href="#linear-gradient"/><clipPath id="clip-path-3" transform="translate(-867.54 -383.06)"><path id="SVGID-3" data-name="SVGID" class="cls-1" d="M1050.69,612.12,963,663.06a5.2,5.2,0,0,1-5.23,0l-88.26-50.95a3,3,0,0,1-.54-4.87,2.59,2.59,0,0,1,.53-.39l87.65-50.94a5.27,5.27,0,0,1,5.24,0l88.25,51a2.8,2.8,0,0,1,.54.4,3,3,0,0,1-.53,4.86"/></clipPath><linearGradient id="linear-gradient-3" x1="93.83" y1="356.83" x2="92.62" y2="231.59" xlink:href="#linear-gradient"/><clipPath id="clip-path-4" transform="translate(-867.54 -383.06)"><path id="SVGID-4" data-name="SVGID" class="cls-1" d="M1052.21,566.51v34a3,3,0,0,1-1.52,2.64L965,652.9,963,654a5.16,5.16,0,0,1-2.93.7V566.51Z"/></clipPath><linearGradient id="linear-gradient-4" x1="13" y1="270.68" x2="272.44" y2="181.7" xlink:href="#linear-gradient"/><clipPath id="clip-path-5" transform="translate(-867.54 -383.06)"><path id="SVGID-5" data-name="SVGID" class="cls-1" d="M960.12,566.51v88.23a5.08,5.08,0,0,1-2.31-.69l-2.57-1.48-85.69-49.48a3,3,0,0,1-1.52-2.62h0v-34Z"/></clipPath><linearGradient id="linear-gradient-5" x1="164.88" y1="265.38" x2="-64.54" y2="192.08" xlink:href="#linear-gradient"/><clipPath id="clip-path-6" transform="translate(-867.54 -383.06)"><path id="SVGID-6" data-name="SVGID" class="cls-1" d="M1050.69,569.14,963,620.08a5.2,5.2,0,0,1-5.23,0l-88.26-51a3,3,0,0,1-.54-4.87,2.59,2.59,0,0,1,.53-.39l87.65-50.93a5.22,5.22,0,0,1,5.24,0l88.25,51a2.8,2.8,0,0,1,.54.4,3,3,0,0,1-.53,4.86"/></clipPath><linearGradient id="linear-gradient-6" x1="93.83" y1="313.86" x2="92.62" y2="188.61" xlink:href="#linear-gradient"/><clipPath id="clip-path-7" transform="translate(-867.54 -383.06)"><path id="SVGID-7" data-name="SVGID" class="cls-1" d="M1052.21,523.53v34a3,3,0,0,1-1.52,2.64L965,609.93l-2,1.13a5.16,5.16,0,0,1-2.93.7V523.53Z"/></clipPath><linearGradient id="linear-gradient-7" x1="13" y1="227.71" x2="272.44" y2="138.71" xlink:href="#linear-gradient"/><clipPath id="clip-path-8" transform="translate(-867.54 -383.06)"><path id="SVGID-8" data-name="SVGID" class="cls-1" d="M960.12,523.53v88.23a5.2,5.2,0,0,1-2.31-.69l-2.57-1.48-85.69-49.47a3,3,0,0,1-1.52-2.63h0v-34Z"/></clipPath><linearGradient id="linear-gradient-8" x1="164.88" y1="222.4" x2="-64.53" y2="149.11" xlink:href="#linear-gradient"/><clipPath id="clip-path-9" transform="translate(-867.54 -383.06)"><path id="SVGID-9" data-name="SVGID" class="cls-1" d="M1050.69,526.16,963,577.1a5.2,5.2,0,0,1-5.23,0l-88.26-51a3,3,0,0,1-.54-4.87,2.59,2.59,0,0,1,.53-.39L957.19,470a5.22,5.22,0,0,1,5.24,0l88.25,50.95a2.8,2.8,0,0,1,.54.4,3,3,0,0,1-.53,4.86"/></clipPath><linearGradient id="linear-gradient-9" x1="93.83" y1="270.88" x2="92.62" y2="145.63" xlink:href="#linear-gradient"/><clipPath id="clip-path-10" transform="translate(-867.54 -383.06)"><path id="SVGID-10" data-name="SVGID" class="cls-1" d="M1052.21,480.55v34a3,3,0,0,1-1.52,2.64L965,567l-2,1.14a5.23,5.23,0,0,1-2.93.69V480.55Z"/></clipPath><linearGradient id="linear-gradient-10" x1="13" y1="184.73" x2="272.44" y2="95.73" xlink:href="#linear-gradient"/><clipPath id="clip-path-11" transform="translate(-867.54 -383.06)"><path id="SVGID-11" data-name="SVGID" class="cls-1" d="M960.12,480.55v88.23a5.08,5.08,0,0,1-2.31-.69l-2.57-1.48-85.69-49.47a3,3,0,0,1-1.52-2.63h0V480.55Z"/></clipPath><linearGradient id="linear-gradient-11" x1="164.88" y1="179.42" x2="-64.54" y2="106.13" xlink:href="#linear-gradient"/><clipPath id="clip-path-12" transform="translate(-867.54 -383.06)"><path id="SVGID-12" data-name="SVGID" class="cls-1" d="M1050.69,483.18,963,534.12a5.2,5.2,0,0,1-5.23,0l-88.26-50.95a3,3,0,0,1-.54-4.87,3.63,3.63,0,0,1,.53-.39L957.19,427a5.25,5.25,0,0,1,5.24,0l88.25,51a2.41,2.41,0,0,1,.54.39,3,3,0,0,1-.53,4.86"/></clipPath><linearGradient id="linear-gradient-12" x1="93.83" y1="227.9" x2="92.62" y2="102.65" xlink:href="#linear-gradient"/><clipPath id="clip-path-13" transform="translate(-867.54 -383.06)"><path id="SVGID-13" data-name="SVGID" class="cls-1" d="M1052.21,437.57v34a3,3,0,0,1-1.52,2.64L965,524l-2,1.14a5.24,5.24,0,0,1-2.93.7V437.57Z"/></clipPath><linearGradient id="linear-gradient-13" x1="1.93" y1="190.56" x2="261.36" y2="16.15" xlink:href="#linear-gradient"/><clipPath id="clip-path-14" transform="translate(-867.54 -383.06)"><path id="SVGID-14" data-name="SVGID" class="cls-1" d="M960.12,437.57v88.24a5.34,5.34,0,0,1-2.31-.69l-2.57-1.49-85.69-49.47a3,3,0,0,1-1.52-2.63h0v-34Z"/></clipPath><linearGradient id="linear-gradient-14" x1="175.77" y1="179.59" x2="-53.63" y2="35.89" xlink:href="#linear-gradient"/><clipPath id="clip-path-15" transform="translate(-867.54 -383.06)"><path id="SVGID-15" data-name="SVGID" class="cls-1" d="M1051.22,435.34a2.9,2.9,0,0,1-.53.39L963,486.66a5.2,5.2,0,0,1-5.23,0l-88.26-50.95a3.15,3.15,0,0,1-.54-.4,3,3,0,0,1,.53-.39L957.19,384a5.25,5.25,0,0,1,5.24,0l88.25,51a2.66,2.66,0,0,1,.54.39"/></clipPath><linearGradient id="linear-gradient-15" x1="1.47" y1="52.27" x2="183.68" y2="52.27" gradientUnits="userSpaceOnUse"><stop offset="0" stop-color="#9aa0f2"/><stop offset="1" stop-color="#ccd1f7"/></linearGradient><clipPath id="clip-path-16" transform="translate(-867.54 -383.06)"><path id="SVGID-16" data-name="SVGID" class="cls-1" d="M959.82,389.68,881.3,435.31,960.41,481l78.52-45.62ZM885,435.3l74.8-43.46,75.39,43.52-74.8,43.47Z"/></clipPath><linearGradient id="linear-gradient-16" x1="296.09" y1="132.66" x2="-231.47" y2="-75.72" xlink:href="#linear-gradient"/></defs><g class="cls-2"><rect class="cls-3" x="92.57" y="226.43" width="92.1" height="88.3"/></g><g class="cls-4"><rect class="cls-5" x="0.49" y="226.43" width="92.08" height="88.24"/></g><path class="cls-6" d="M965,660.23v35.65L963,697a5.15,5.15,0,0,1-2.92.7,5.34,5.34,0,0,1-2.31-.69l-2.57-1.48V660.23Z" transform="translate(-867.54 -383.06)"/><g class="cls-7"><rect class="cls-8" y="171.91" width="185.15" height="109.03"/></g><path class="cls-9" d="M1048.72,602.42v-.15a.76.76,0,0,1,0,.15Zm-1.86,2.46L965,652.43a10,10,0,0,1-9.08,0L873.6,604.88a3.19,3.19,0,0,1-1.88-2.63v3.34c0,2.48-.66,4.21,1.69,5.56l82.36,47.55a10.05,10.05,0,0,0,9.08,0l81.82-47.56a3.2,3.2,0,0,0,1.86-2.61V603.2A3.86,3.86,0,0,1,1046.86,604.88Z" transform="translate(-867.54 -383.06)"/><g class="cls-10"><rect class="cls-11" x="92.57" y="183.45" width="92.1" height="88.3"/></g><g class="cls-12"><rect class="cls-13" x="0.49" y="183.45" width="92.08" height="88.24"/></g><path class="cls-6" d="M965,617.25v35.66L963,654a5.15,5.15,0,0,1-2.92.7,5.2,5.2,0,0,1-2.31-.69l-2.57-1.48V617.25Z" transform="translate(-867.54 -383.06)"/><g class="cls-14"><rect class="cls-15" y="128.94" width="185.15" height="109.03"/></g><path class="cls-9" d="M1046.86,561.91,965,609.45a10,10,0,0,1-9.08,0L873.6,561.91a3.22,3.22,0,0,1-1.88-2.64l0,5.61c0,1.72,0,2.3,1.7,3.29l82.36,47.55a10.05,10.05,0,0,0,9.08,0l81.82-47.56a3.18,3.18,0,0,0,1.86-2.6v-5.34a4,4,0,0,1-1.66,1.68" transform="translate(-867.54 -383.06)"/><g class="cls-16"><rect class="cls-17" x="92.57" y="140.47" width="92.1" height="88.29"/></g><g class="cls-18"><rect class="cls-19" x="0.49" y="140.47" width="92.08" height="88.24"/></g><path class="cls-6" d="M965,574.27v35.66l-2,1.13a5.15,5.15,0,0,1-2.92.7,5.08,5.08,0,0,1-2.31-.69l-2.57-1.48V574.27Z" transform="translate(-867.54 -383.06)"/><g class="cls-20"><rect class="cls-21" y="85.95" width="185.15" height="109.03"/></g><path class="cls-9" d="M1046.86,518.93,965,566.48a10,10,0,0,1-9.08,0L873.6,518.93a3.2,3.2,0,0,1-1.88-2.64v4.6h0c0,2.13-.41,3.1,1.69,4.3l82.36,47.55a10.05,10.05,0,0,0,9.08,0l81.82-47.56a3.18,3.18,0,0,0,1.86-2.6v-5.34a4,4,0,0,1-1.66,1.68" transform="translate(-867.54 -383.06)"/><g class="cls-22"><rect class="cls-23" x="92.57" y="97.49" width="92.1" height="88.29"/></g><g class="cls-24"><rect class="cls-25" x="0.49" y="97.49" width="92.08" height="88.23"/></g><path class="cls-6" d="M965,531.29V567l-2,1.13a5.15,5.15,0,0,1-2.92.7,5.08,5.08,0,0,1-2.31-.69l-2.57-1.48V531.29Z" transform="translate(-867.54 -383.06)"/><g class="cls-26"><rect class="cls-27" y="42.98" width="185.15" height="109.03"/></g><path class="cls-9" d="M1046.86,476,965,523.5a10,10,0,0,1-9.08,0L873.6,476a3.2,3.2,0,0,1-1.88-2.64l0,5c0,2-.29,2.78,1.7,3.92l82.36,47.55a10.05,10.05,0,0,0,9.08,0l81.82-47.56a3.18,3.18,0,0,0,1.86-2.6v-5.34a3.86,3.86,0,0,1-1.66,1.68" transform="translate(-867.54 -383.06)"/><g class="cls-28"><rect class="cls-29" x="92.57" y="54.51" width="92.1" height="88.29"/></g><g class="cls-30"><rect class="cls-31" x="0.49" y="54.51" width="92.08" height="88.24"/></g><path class="cls-6" d="M965,488.31V524l-2,1.14a5.23,5.23,0,0,1-2.92.7,5.34,5.34,0,0,1-2.31-.69l-2.57-1.49V488.31Z" transform="translate(-867.54 -383.06)"/><path class="cls-6" d="M1050.69,440.2,963,491.14a5.2,5.2,0,0,1-5.23,0L869.55,440.2a3.05,3.05,0,0,1-.54-4.88,3.63,3.63,0,0,1,.53-.39L957.19,384a5.25,5.25,0,0,1,5.24,0l88.25,51a2.41,2.41,0,0,1,.54.39,3,3,0,0,1-.53,4.86" transform="translate(-867.54 -383.06)"/><g class="cls-32"><rect class="cls-33" x="1.47" width="182.21" height="104.55"/></g><g class="cls-34"><rect class="cls-35" x="13.76" y="6.62" width="157.64" height="91.31"/></g></svg>