<svg id="Layer_1" data-name="Layer 1" xmlns="http://www.w3.org/2000/svg" xmlns:xlink="http://www.w3.org/1999/xlink" viewBox="0 0 185.15 185.79"><defs><style>.cls-1{fill:none;clip-rule:evenodd;}.cls-2{clip-path:url(#clip-path);}.cls-3{fill:url(#linear-gradient);}.cls-4{clip-path:url(#clip-path-2);}.cls-5{fill:url(#linear-gradient-2);}.cls-6{fill:#7c82f6;}.cls-7{clip-path:url(#clip-path-3);}.cls-8{fill:url(#linear-gradient-3);}.cls-9{fill:#00fee0;}.cls-10{clip-path:url(#clip-path-4);}.cls-11{fill:url(#linear-gradient-4);}.cls-12{clip-path:url(#clip-path-5);}.cls-13{fill:url(#linear-gradient-5);}.cls-14{clip-path:url(#clip-path-6);}.cls-15{fill:url(#linear-gradient-6);}.cls-16{clip-path:url(#clip-path-7);}.cls-17{fill:url(#linear-gradient-7);}</style><clipPath id="clip-path" transform="translate(-867.54 -447.52)"><path id="SVGID" class="cls-1" d="M1052.2,545v34a3,3,0,0,1-1.51,2.64L965,631.42l-2,1.14a5.22,5.22,0,0,1-2.92.69V545Z"/></clipPath><linearGradient id="linear-gradient" x1="13.01" y1="184.73" x2="272.44" y2="95.74" gradientUnits="userSpaceOnUse"><stop offset="0" stop-color="#858bf2"/><stop offset="1" stop-color="#1d2297"/></linearGradient><clipPath id="clip-path-2" transform="translate(-867.54 -447.52)"><path id="SVGID-2" data-name="SVGID" class="cls-1" d="M960.12,545v88.23a5.08,5.08,0,0,1-2.31-.69l-2.57-1.48-85.69-49.47A3,3,0,0,1,868,579h0V545Z"/></clipPath><linearGradient id="linear-gradient-2" x1="164.87" y1="179.42" x2="-64.53" y2="106.13" xlink:href="#linear-gradient"/><clipPath id="clip-path-3" transform="translate(-867.54 -447.52)"><path id="SVGID-3" data-name="SVGID" class="cls-1" d="M1050.69,547.65,963,598.59a5.2,5.2,0,0,1-5.23,0l-88.26-51a3,3,0,0,1,0-5.26l87.65-50.93a5.22,5.22,0,0,1,5.24,0l88.25,50.95a2.8,2.8,0,0,1,.54.4,3,3,0,0,1-.53,4.86"/></clipPath><linearGradient id="linear-gradient-3" x1="93.82" y1="227.9" x2="92.62" y2="102.66" xlink:href="#linear-gradient"/><clipPath id="clip-path-4" transform="translate(-867.54 -447.52)"><path id="SVGID-4" data-name="SVGID" class="cls-1" d="M1052.2,502v34a3,3,0,0,1-1.51,2.64L965,588.44l-2,1.14a5.14,5.14,0,0,1-2.92.69V502Z"/></clipPath><linearGradient id="linear-gradient-4" x1="1.93" y1="190.56" x2="261.35" y2="16.15" xlink:href="#linear-gradient"/><clipPath id="clip-path-5" transform="translate(-867.54 -447.52)"><path id="SVGID-5" data-name="SVGID" class="cls-1" d="M960.12,502v88.23a5.08,5.08,0,0,1-2.31-.69l-2.57-1.48-85.69-49.47A3,3,0,0,1,868,536h0V502Z"/></clipPath><linearGradient id="linear-gradient-5" x1="175.78" y1="179.59" x2="-53.63" y2="35.89" xlink:href="#linear-gradient"/><clipPath id="clip-path-6" transform="translate(-867.54 -447.52)"><path id="SVGID-6" data-name="SVGID" class="cls-1" d="M1051.22,499.81a2.9,2.9,0,0,1-.53.39L963,551.13a5.2,5.2,0,0,1-5.23,0l-88.26-50.95a3.15,3.15,0,0,1-.54-.4,3,3,0,0,1,.53-.39l87.65-50.93a5.22,5.22,0,0,1,5.24,0l88.25,51a2.66,2.66,0,0,1,.54.39"/></clipPath><linearGradient id="linear-gradient-6" x1="1.47" y1="52.28" x2="183.68" y2="52.28" gradientUnits="userSpaceOnUse"><stop offset="0" stop-color="#9aa0f2"/><stop offset="1" stop-color="#ccd1f7"/></linearGradient><clipPath id="clip-path-7" transform="translate(-867.54 -447.52)"><path id="SVGID-7" data-name="SVGID" class="cls-1" d="M959.82,454.14,881.3,499.78l79.11,45.67,78.52-45.62ZM885,499.77l74.8-43.46,75.39,43.52-74.8,43.47Z"/></clipPath><linearGradient id="linear-gradient-7" x1="296.09" y1="132.66" x2="-231.46" y2="-75.72" xlink:href="#linear-gradient"/></defs><g class="cls-2"><rect class="cls-3" x="92.57" y="97.49" width="92.09" height="88.29"/></g><g class="cls-4"><rect class="cls-5" x="0.49" y="97.49" width="92.08" height="88.24"/></g><path class="cls-6" d="M965,595.76v35.66l-2,1.13a5.15,5.15,0,0,1-2.92.7,5.08,5.08,0,0,1-2.31-.69l-2.57-1.48V595.76Z" transform="translate(-867.54 -447.52)"/><g class="cls-7"><rect class="cls-8" y="42.98" width="185.15" height="109.03"/></g><path class="cls-9" d="M1046.86,540.42,965,588a10,10,0,0,1-9.08,0L873.6,540.42a3.2,3.2,0,0,1-1.88-2.64v3.64h0v2.21c0,1.62.08,2.13,1.69,3l82.36,47.55a10.05,10.05,0,0,0,9.08,0l81.82-47.56a3.18,3.18,0,0,0,1.86-2.6v-5.34a3.91,3.91,0,0,1-1.66,1.68" transform="translate(-867.54 -447.52)"/><g class="cls-10"><rect class="cls-11" x="92.57" y="54.52" width="92.09" height="88.29"/></g><g class="cls-12"><rect class="cls-13" x="0.49" y="54.52" width="92.08" height="88.23"/></g><path class="cls-6" d="M965,552.78v35.66l-2,1.14a5.14,5.14,0,0,1-2.92.69,5.08,5.08,0,0,1-2.31-.69l-2.57-1.48V552.78Z" transform="translate(-867.54 -447.52)"/><path class="cls-6" d="M1050.69,504.67,963,555.61a5.23,5.23,0,0,1-5.23,0l-88.26-51a3,3,0,0,1-.54-4.87,3.63,3.63,0,0,1,.53-.39l87.65-50.93a5.22,5.22,0,0,1,5.24,0l88.25,51a2.41,2.41,0,0,1,.54.39,3,3,0,0,1-.53,4.86" transform="translate(-867.54 -447.52)"/><g class="cls-14"><rect class="cls-15" x="1.47" width="182.21" height="104.55"/></g><g class="cls-16"><rect class="cls-17" x="13.76" y="6.62" width="157.64" height="91.31"/></g></svg>