<svg id="Layer_1" data-name="Layer 1" xmlns="http://www.w3.org/2000/svg" xmlns:xlink="http://www.w3.org/1999/xlink" viewBox="0 0 428.49 385.95"><defs><style>.cls-1{fill:none;clip-rule:evenodd;}.cls-2{fill:url(#linear-gradient);}.cls-3{clip-path:url(#clip-path);}.cls-4{fill:url(#linear-gradient-2);}.cls-5{fill:#00fee0;}.cls-6{clip-path:url(#clip-path-2);}.cls-7{fill:url(#linear-gradient-3);}.cls-8{clip-path:url(#clip-path-3);}.cls-9{fill:url(#linear-gradient-4);}.cls-10{fill:#7c82f6;}.cls-11{clip-path:url(#clip-path-4);}.cls-12{fill:url(#linear-gradient-5);}.cls-13{clip-path:url(#clip-path-5);}.cls-14{fill:url(#linear-gradient-6);}.cls-15{clip-path:url(#clip-path-6);}.cls-16{fill:url(#linear-gradient-7);}.cls-17{clip-path:url(#clip-path-7);}.cls-18{fill:url(#linear-gradient-8);}.cls-19{clip-path:url(#clip-path-8);}.cls-20{fill:url(#linear-gradient-9);}.cls-21{clip-path:url(#clip-path-9);}.cls-22{fill:url(#linear-gradient-10);}.cls-23{clip-path:url(#clip-path-10);}.cls-24{fill:url(#linear-gradient-11);}.cls-25{clip-path:url(#clip-path-11);}.cls-26{fill:url(#linear-gradient-12);}.cls-27{clip-path:url(#clip-path-12);}.cls-28{fill:url(#linear-gradient-13);}.cls-29{clip-path:url(#clip-path-13);}.cls-30{fill:url(#linear-gradient-14);}.cls-31{clip-path:url(#clip-path-14);}.cls-32{fill:url(#linear-gradient-15);}.cls-33{clip-path:url(#clip-path-15);}.cls-34{fill:url(#linear-gradient-16);}.cls-35{clip-path:url(#clip-path-16);}.cls-36{fill:url(#linear-gradient-17);}.cls-37{clip-path:url(#clip-path-17);}.cls-38{fill:url(#linear-gradient-18);}.cls-39{clip-path:url(#clip-path-18);}.cls-40{fill:url(#linear-gradient-19);}.cls-41{clip-path:url(#clip-path-19);}.cls-42{fill:url(#linear-gradient-20);}.cls-43{clip-path:url(#clip-path-20);}.cls-44{fill:url(#linear-gradient-21);}.cls-45{clip-path:url(#clip-path-21);}.cls-46{fill:url(#linear-gradient-22);}.cls-47{clip-path:url(#clip-path-22);}.cls-48{fill:url(#linear-gradient-23);}.cls-49{clip-path:url(#clip-path-23);}.cls-50{fill:url(#linear-gradient-24);}</style><linearGradient id="linear-gradient" x1="268.3" y1="212.08" x2="268.3" y2="22.07" gradientUnits="userSpaceOnUse"><stop offset="0" stop-color="#00c8cd"/><stop offset="1" stop-color="#152797"/></linearGradient><clipPath id="clip-path" transform="translate(-720.63 -439.95)"><polygon id="SVGID" class="cls-1" points="966.52 479.06 966.52 620.47 1033.82 581.36 1033.82 439.95 966.52 479.06"/></clipPath><linearGradient id="linear-gradient-2" x1="279.54" y1="180.51" x2="279.54" y2="0" xlink:href="#linear-gradient"/><clipPath id="clip-path-2" transform="translate(-720.63 -439.95)"><path id="SVGID-2" data-name="SVGID" class="cls-1" d="M1149.12,591.57v34a3,3,0,0,1-1.52,2.64L817.6,819l-2,1.14a5.14,5.14,0,0,1-2.92.69V732.62Z"/></clipPath><linearGradient id="linear-gradient-3" x1="-259.81" y1="515" x2="687.87" y2="61.82" gradientUnits="userSpaceOnUse"><stop offset="0" stop-color="#858bf2"/><stop offset="1" stop-color="#1d2297"/></linearGradient><clipPath id="clip-path-3" transform="translate(-720.63 -439.95)"><path id="SVGID-3" data-name="SVGID" class="cls-1" d="M812.72,732.62v88.23a5.08,5.08,0,0,1-2.31-.69l-2.57-1.48-85.69-49.47a3,3,0,0,1-1.52-2.63h0v-34Z"/></clipPath><linearGradient id="linear-gradient-4" x1="175.28" y1="417.74" x2="-54.12" y2="274.05" xlink:href="#linear-gradient-3"/><clipPath id="clip-path-4" transform="translate(-720.63 -439.95)"><path id="SVGID-4" data-name="SVGID" class="cls-1" d="M1148.13,589.34a2.66,2.66,0,0,1-.53.38l-332,192a5.2,5.2,0,0,1-5.23,0l-88.26-51a3.15,3.15,0,0,1-.54-.4,2.59,2.59,0,0,1,.53-.39l332-192a5.25,5.25,0,0,1,5.24,0l88.25,51a2.52,2.52,0,0,1,.54.4"/></clipPath><linearGradient id="linear-gradient-5" x1="217.12" y1="514.38" x2="214.36" y2="231.56" xlink:href="#linear-gradient-3"/><clipPath id="clip-path-5" transform="translate(-720.63 -439.95)"><path id="SVGID-5" data-name="SVGID" class="cls-1" d="M892.58,732.46l-77.73,45.18a4.63,4.63,0,0,1-4.65,0l-78.27-45.19a2.68,2.68,0,0,1,0-4.66l77.74-45.18a4.63,4.63,0,0,1,4.64,0l78.28,45.19a2.13,2.13,0,0,1,.47.35,2.68,2.68,0,0,1-.47,4.31"/></clipPath><linearGradient id="linear-gradient-6" x1="92.72" y1="405.83" x2="91.67" y2="294.76" xlink:href="#linear-gradient-3"/><clipPath id="clip-path-6" transform="translate(-720.63 -439.95)"><path id="SVGID-6" data-name="SVGID" class="cls-1" d="M893.93,692v30.12a2.68,2.68,0,0,1-1.35,2.34l-76,44.17-1.73,1a4.68,4.68,0,0,1-2.6.62V692Z"/></clipPath><linearGradient id="linear-gradient-7" x1="21.05" y1="329.43" x2="251.14" y2="250.5" xlink:href="#linear-gradient-3"/><clipPath id="clip-path-7" transform="translate(-720.63 -439.95)"><path id="SVGID-7" data-name="SVGID" class="cls-1" d="M812.25,692v78.26a4.61,4.61,0,0,1-2-.62l-2.28-1.31-76-43.88a2.72,2.72,0,0,1-1.35-2.33h0V692Z"/></clipPath><linearGradient id="linear-gradient-8" x1="155.74" y1="324.72" x2="-47.72" y2="259.72" xlink:href="#linear-gradient-3"/><clipPath id="clip-path-8" transform="translate(-720.63 -439.95)"><path id="SVGID-8" data-name="SVGID" class="cls-1" d="M892.58,694.34l-77.73,45.18a4.63,4.63,0,0,1-4.65,0l-78.27-45.19a2.7,2.7,0,0,1-.48-4.32,2.73,2.73,0,0,1,.47-.35l77.74-45.18a4.63,4.63,0,0,1,4.64,0l78.28,45.19a2.13,2.13,0,0,1,.47.35,2.68,2.68,0,0,1-.47,4.31"/></clipPath><linearGradient id="linear-gradient-9" x1="92.72" y1="367.71" x2="91.67" y2="256.63" xlink:href="#linear-gradient-3"/><clipPath id="clip-path-9" transform="translate(-720.63 -439.95)"><path id="SVGID-9" data-name="SVGID" class="cls-1" d="M893.93,653.89V684a2.68,2.68,0,0,1-1.35,2.34l-76,44.17-1.73,1a4.68,4.68,0,0,1-2.6.62V653.89Z"/></clipPath><linearGradient id="linear-gradient-10" x1="21.05" y1="291.31" x2="251.14" y2="212.39" xlink:href="#linear-gradient-3"/><clipPath id="clip-path-10" transform="translate(-720.63 -439.95)"><path id="SVGID-10" data-name="SVGID" class="cls-1" d="M812.25,653.89v78.26a4.61,4.61,0,0,1-2-.62l-2.28-1.31-76-43.88a2.7,2.7,0,0,1-1.35-2.33h0V653.89Z"/></clipPath><linearGradient id="linear-gradient-11" x1="155.74" y1="286.6" x2="-47.72" y2="221.6" xlink:href="#linear-gradient-3"/><clipPath id="clip-path-11" transform="translate(-720.63 -439.95)"><path id="SVGID-11" data-name="SVGID" class="cls-1" d="M892.58,656.23,814.85,701.4a4.63,4.63,0,0,1-4.65,0l-78.27-45.19a2.7,2.7,0,0,1-.48-4.32,2.73,2.73,0,0,1,.47-.35l77.74-45.17a4.63,4.63,0,0,1,4.64,0l78.28,45.19a2.5,2.5,0,0,1,.47.35,2.69,2.69,0,0,1-.47,4.32"/></clipPath><linearGradient id="linear-gradient-12" x1="92.72" y1="329.59" x2="91.67" y2="218.52" xlink:href="#linear-gradient-3"/><clipPath id="clip-path-12" transform="translate(-720.63 -439.95)"><path id="SVGID-12" data-name="SVGID" class="cls-1" d="M893.93,615.77v30.12a2.7,2.7,0,0,1-1.35,2.35l-76,44.16-1.73,1a4.68,4.68,0,0,1-2.6.62V615.77Z"/></clipPath><linearGradient id="linear-gradient-13" x1="11.22" y1="296.48" x2="241.31" y2="141.79" xlink:href="#linear-gradient-3"/><clipPath id="clip-path-13" transform="translate(-720.63 -439.95)"><path id="SVGID-13" data-name="SVGID" class="cls-1" d="M812.25,615.77V694a4.73,4.73,0,0,1-2-.61l-2.28-1.32-76-43.88a2.7,2.7,0,0,1-1.35-2.33h0V615.77Z"/></clipPath><linearGradient id="linear-gradient-14" x1="165.41" y1="286.75" x2="-38.05" y2="159.3" xlink:href="#linear-gradient-3"/><clipPath id="clip-path-14" transform="translate(-720.63 -439.95)"><path id="SVGID-14" data-name="SVGID" class="cls-1" d="M893.05,613.8a2.83,2.83,0,0,1-.47.34l-77.73,45.17a4.63,4.63,0,0,1-4.65,0l-78.27-45.19a3,3,0,0,1-.48-.35,2.73,2.73,0,0,1,.47-.35l77.74-45.17a4.63,4.63,0,0,1,4.64,0l78.28,45.19a2.44,2.44,0,0,1,.47.36"/></clipPath><linearGradient id="linear-gradient-15" x1="10.82" y1="173.84" x2="172.42" y2="173.84" gradientUnits="userSpaceOnUse"><stop offset="0" stop-color="#9aa0f2"/><stop offset="1" stop-color="#ccd1f7"/></linearGradient><clipPath id="clip-path-15" transform="translate(-720.63 -439.95)"><path id="SVGID-15" data-name="SVGID" class="cls-1" d="M812,573.29l-69.64,40.47,70.16,40.51,69.65-40.46Zm-66.34,40.47L812,575.21l66.86,38.61-66.34,38.55Z"/></clipPath><linearGradient id="linear-gradient-16" x1="272.12" y1="245.13" x2="-195.78" y2="60.31" xlink:href="#linear-gradient-3"/><clipPath id="clip-path-16" transform="translate(-720.63 -439.95)"><path id="SVGID-16" data-name="SVGID" class="cls-1" d="M1134.83,590l-77.74,45.18a4.61,4.61,0,0,1-4.64,0L974.17,590a2.68,2.68,0,0,1,0-4.66l77.74-45.18a4.65,4.65,0,0,1,4.65,0l78.27,45.2a2.47,2.47,0,0,1,.48.35,2.69,2.69,0,0,1-.47,4.31"/></clipPath><linearGradient id="linear-gradient-17" x1="334.96" y1="263.4" x2="333.91" y2="152.31" xlink:href="#linear-gradient-3"/><clipPath id="clip-path-17" transform="translate(-720.63 -439.95)"><path id="SVGID-17" data-name="SVGID" class="cls-1" d="M1136.17,549.57v30.12a2.67,2.67,0,0,1-1.34,2.34l-76,44.17-1.74,1a4.52,4.52,0,0,1-2.6.62V549.57Z"/></clipPath><linearGradient id="linear-gradient-18" x1="263.3" y1="186.99" x2="493.39" y2="108.06" xlink:href="#linear-gradient-3"/><clipPath id="clip-path-18" transform="translate(-720.63 -439.95)"><path id="SVGID-18" data-name="SVGID" class="cls-1" d="M1054.5,549.57v78.25a4.6,4.6,0,0,1-2-.61l-2.28-1.31-76-43.88a2.72,2.72,0,0,1-1.35-2.33h0V549.57Z"/></clipPath><linearGradient id="linear-gradient-19" x1="397.98" y1="182.28" x2="194.52" y2="117.27" xlink:href="#linear-gradient-3"/><clipPath id="clip-path-19" transform="translate(-720.63 -439.95)"><path id="SVGID-19" data-name="SVGID" class="cls-1" d="M1134.83,551.9l-77.74,45.18a4.61,4.61,0,0,1-4.64,0L974.17,551.9a2.71,2.71,0,0,1-.48-4.33,3.33,3.33,0,0,1,.47-.34l77.74-45.18a4.65,4.65,0,0,1,4.65,0l78.27,45.19a3,3,0,0,1,.48.35,2.69,2.69,0,0,1-.47,4.31"/></clipPath><linearGradient id="linear-gradient-20" x1="334.96" y1="225.28" x2="333.91" y2="114.2" xlink:href="#linear-gradient-3"/><clipPath id="clip-path-20" transform="translate(-720.63 -439.95)"><path id="SVGID-20" data-name="SVGID" class="cls-1" d="M1136.17,511.45v30.12a2.67,2.67,0,0,1-1.34,2.34l-76,44.17-1.74,1a4.68,4.68,0,0,1-2.6.62V511.45Z"/></clipPath><linearGradient id="linear-gradient-21" x1="253.47" y1="192.16" x2="483.56" y2="37.47" xlink:href="#linear-gradient-3"/><clipPath id="clip-path-21" transform="translate(-720.63 -439.95)"><path id="SVGID-21" data-name="SVGID" class="cls-1" d="M1054.5,511.45v78.26a4.61,4.61,0,0,1-2-.62l-2.28-1.31-76-43.88a2.7,2.7,0,0,1-1.35-2.33h0V511.45Z"/></clipPath><linearGradient id="linear-gradient-22" x1="407.65" y1="182.43" x2="204.19" y2="54.98" xlink:href="#linear-gradient-3"/><clipPath id="clip-path-22" transform="translate(-720.63 -439.95)"><path id="SVGID-22" data-name="SVGID" class="cls-1" d="M1135.3,509.47a2.73,2.73,0,0,1-.47.35L1057.09,555a4.63,4.63,0,0,1-4.64,0l-78.28-45.2a3.21,3.21,0,0,1-.48-.34,2.3,2.3,0,0,1,.47-.35l77.74-45.17a4.61,4.61,0,0,1,4.64,0l78.28,45.19a2.47,2.47,0,0,1,.48.35"/></clipPath><linearGradient id="linear-gradient-23" x1="253.06" y1="69.51" x2="414.67" y2="69.51" xlink:href="#linear-gradient-15"/><clipPath id="clip-path-23" transform="translate(-720.63 -439.95)"><path id="SVGID-23" data-name="SVGID" class="cls-1" d="M1054.24,469l-69.65,40.47L1054.76,550l69.64-40.47Zm-66.35,40.47,66.35-38.55,66.86,38.6L1054.76,548Z"/></clipPath><linearGradient id="linear-gradient-24" x1="514.36" y1="140.8" x2="46.47" y2="-44.01" xlink:href="#linear-gradient-3"/></defs><polygon class="cls-2" points="234.65 59.18 234.65 219.22 301.95 180.11 301.95 38.7 245.89 39.11 234.65 59.18"/><g class="cls-3"><rect class="cls-4" x="245.89" width="67.3" height="180.51"/></g><path class="cls-5" d="M1143.77,629.94,817.64,818.55a10.08,10.08,0,0,1-9.08,0L726.2,771a3.2,3.2,0,0,1-1.88-2.64V772h0v2.21c0,1.63.08,2.14,1.69,3.06l82.36,47.55a10.05,10.05,0,0,0,9.08,0l326.13-188.61a3.18,3.18,0,0,0,1.86-2.61v-5.33a3.89,3.89,0,0,1-1.66,1.67" transform="translate(-720.63 -439.95)"/><g class="cls-6"><rect class="cls-7" x="92.09" y="151.61" width="336.41" height="229.35"/></g><g class="cls-8"><rect class="cls-9" y="292.67" width="92.08" height="88.23"/></g><path class="cls-10" d="M817.6,783.36V819l-2,1.13a5.21,5.21,0,0,1-5.23,0l-2.57-1.48V783.36Z" transform="translate(-720.63 -439.95)"/><path class="cls-10" d="M1147.6,594.2l-332,192a5.23,5.23,0,0,1-5.23,0l-88.26-51a3,3,0,0,1,0-5.26l332-192a5.25,5.25,0,0,1,5.24,0l88.26,51a2.73,2.73,0,0,1,.53.4,3,3,0,0,1-.53,4.86" transform="translate(-720.63 -439.95)"/><g class="cls-11"><rect class="cls-12" x="0.98" y="97.1" width="426.52" height="245.6"/></g><g class="cls-13"><rect class="cls-14" x="9.52" y="241.83" width="164.21" height="96.7"/></g><path class="cls-5" d="M889.19,726.05l-72.57,42.17a8.92,8.92,0,0,1-8,0l-73.05-42.17a2.84,2.84,0,0,1-1.67-2.34v5c0,1.53,0,2,1.5,2.92l73,42.17a8.89,8.89,0,0,0,8.05,0L889,731.6a2.82,2.82,0,0,0,1.65-2.31v-4.73a3.54,3.54,0,0,1-1.47,1.49" transform="translate(-720.63 -439.95)"/><g class="cls-15"><rect class="cls-16" x="91.62" y="252.06" width="81.68" height="78.31"/></g><g class="cls-17"><rect class="cls-18" x="9.95" y="252.06" width="81.67" height="78.26"/></g><path class="cls-10" d="M816.58,737v31.63l-1.73,1a4.52,4.52,0,0,1-2.6.62,4.47,4.47,0,0,1-2-.61l-2.28-1.31V737Z" transform="translate(-720.63 -439.95)"/><g class="cls-19"><rect class="cls-20" x="9.52" y="203.71" width="164.21" height="96.7"/></g><path class="cls-5" d="M889.19,687.93,816.62,730.1a8.86,8.86,0,0,1-8,0l-73.05-42.17a2.84,2.84,0,0,1-1.67-2.34v4.08h0c0,1.89-.36,2.75,1.5,3.81l73,42.17a8.89,8.89,0,0,0,8.05,0L889,693.48a2.82,2.82,0,0,0,1.65-2.3v-4.74a3.54,3.54,0,0,1-1.47,1.49" transform="translate(-720.63 -439.95)"/><g class="cls-21"><rect class="cls-22" x="91.62" y="213.94" width="81.68" height="78.31"/></g><g class="cls-23"><rect class="cls-24" x="9.95" y="213.94" width="81.67" height="78.26"/></g><path class="cls-10" d="M816.58,698.89v31.63l-1.73,1a4.65,4.65,0,0,1-4.65,0l-2.28-1.32V698.89Z" transform="translate(-720.63 -439.95)"/><g class="cls-25"><rect class="cls-26" x="9.52" y="165.59" width="164.21" height="96.7"/></g><path class="cls-5" d="M889.19,649.81,816.62,692a8.86,8.86,0,0,1-8,0l-73.05-42.17a2.84,2.84,0,0,1-1.67-2.34v4.42c0,1.76-.27,2.46,1.5,3.47l73,42.18a9,9,0,0,0,8.05,0L889,655.36a2.82,2.82,0,0,0,1.65-2.3v-4.74a3.48,3.48,0,0,1-1.47,1.49" transform="translate(-720.63 -439.95)"/><g class="cls-27"><rect class="cls-28" x="91.62" y="175.82" width="81.68" height="78.31"/></g><g class="cls-29"><rect class="cls-30" x="9.95" y="175.82" width="81.67" height="78.26"/></g><path class="cls-10" d="M816.58,660.77V692.4l-1.73,1a4.65,4.65,0,0,1-4.65,0l-2.28-1.32V660.77Z" transform="translate(-720.63 -439.95)"/><path class="cls-10" d="M892.58,618.11l-77.73,45.18a4.65,4.65,0,0,1-4.65,0L731.93,618.1a2.7,2.7,0,0,1-.48-4.32,2.73,2.73,0,0,1,.47-.35l77.74-45.17a4.63,4.63,0,0,1,4.64,0l78.28,45.19a2.16,2.16,0,0,1,.47.36,2.68,2.68,0,0,1-.47,4.31" transform="translate(-720.63 -439.95)"/><g class="cls-31"><rect class="cls-32" x="10.82" y="127.47" width="161.6" height="92.73"/></g><g class="cls-33"><rect class="cls-34" x="21.72" y="133.34" width="139.81" height="80.98"/></g><g class="cls-35"><rect class="cls-36" x="251.76" y="99.38" width="164.21" height="96.7"/></g><path class="cls-5" d="M1131.43,583.6l-72.57,42.18a8.92,8.92,0,0,1-8,0l-73-42.18a2.8,2.8,0,0,1-1.67-2.33l0,4.08h0c0,1.88-.36,2.74,1.5,3.81l73.05,42.17a8.89,8.89,0,0,0,8,0l72.57-42.18a2.8,2.8,0,0,0,1.65-2.31v-4.74a3.37,3.37,0,0,1-1.47,1.49" transform="translate(-720.63 -439.95)"/><g class="cls-37"><rect class="cls-38" x="333.86" y="109.62" width="81.68" height="78.31"/></g><g class="cls-39"><rect class="cls-40" x="252.19" y="109.62" width="81.67" height="78.26"/></g><path class="cls-10" d="M1058.82,594.57V626.2l-1.73,1a4.51,4.51,0,0,1-2.59.62,4.6,4.6,0,0,1-2-.61l-2.28-1.31V594.57Z" transform="translate(-720.63 -439.95)"/><g class="cls-41"><rect class="cls-42" x="251.76" y="61.27" width="164.21" height="96.7"/></g><path class="cls-5" d="M1131.43,545.49l-72.57,42.17a8.86,8.86,0,0,1-8,0l-73-42.17a2.82,2.82,0,0,1-1.67-2.34l0,4.41c0,1.77-.26,2.47,1.5,3.48l73.05,42.18a8.92,8.92,0,0,0,8,0L1131.25,551a2.8,2.8,0,0,0,1.65-2.31V544a3.48,3.48,0,0,1-1.47,1.49" transform="translate(-720.63 -439.95)"/><g class="cls-43"><rect class="cls-44" x="333.86" y="71.5" width="81.68" height="78.31"/></g><g class="cls-45"><rect class="cls-46" x="252.19" y="71.5" width="81.67" height="78.26"/></g><path class="cls-10" d="M1058.82,556.45v31.63l-1.73,1a4.57,4.57,0,0,1-4.64,0l-2.28-1.31V556.45Z" transform="translate(-720.63 -439.95)"/><path class="cls-10" d="M1134.83,513.79,1057.09,559a4.61,4.61,0,0,1-4.64,0l-78.28-45.19a2.7,2.7,0,0,1-.48-4.32,2.73,2.73,0,0,1,.47-.35l77.74-45.17a4.63,4.63,0,0,1,4.65,0l78.27,45.19a2.47,2.47,0,0,1,.48.35,2.7,2.7,0,0,1-.47,4.32" transform="translate(-720.63 -439.95)"/><g class="cls-47"><rect class="cls-48" x="253.06" y="23.15" width="161.6" height="92.73"/></g><g class="cls-49"><rect class="cls-50" x="263.96" y="29.02" width="139.81" height="80.98"/></g></svg>