<svg id="Layer_1" data-name="Layer 1" xmlns="http://www.w3.org/2000/svg" xmlns:xlink="http://www.w3.org/1999/xlink" viewBox="0 0 306.7 407.48"><defs><style>.cls-1{fill:url(#linear-gradient);}.cls-2{fill:url(#linear-gradient-2);}.cls-3{fill:url(#linear-gradient-3);}.cls-4{fill:url(#linear-gradient-4);}.cls-5{fill:url(#linear-gradient-5);}.cls-6{fill:url(#linear-gradient-6);}.cls-7{fill:url(#linear-gradient-7);}.cls-8{fill:url(#linear-gradient-8);}.cls-9{fill:url(#linear-gradient-9);}.cls-10{fill:url(#linear-gradient-10);}.cls-11{fill:url(#linear-gradient-11);}.cls-12{fill:url(#linear-gradient-12);}.cls-13{fill:url(#linear-gradient-13);}.cls-14{fill:url(#linear-gradient-14);}.cls-15{fill:none;clip-rule:evenodd;}.cls-16{clip-path:url(#clip-path);}.cls-17{fill:url(#linear-gradient-15);}.cls-18{clip-path:url(#clip-path-2);}.cls-19{mask:url(#mask);}.cls-20{fill:url(#linear-gradient-16);}.cls-21{clip-path:url(#clip-path-3);}.cls-22{mask:url(#mask-2);}.cls-23{fill:url(#linear-gradient-17);}.cls-24{clip-path:url(#clip-path-4);}.cls-25{mask:url(#mask-3);}.cls-26{fill:url(#linear-gradient-18);}.cls-27{clip-path:url(#clip-path-5);}.cls-28{mask:url(#mask-4);}.cls-29{fill:url(#linear-gradient-19);}.cls-30{clip-path:url(#clip-path-6);}.cls-31{fill:url(#linear-gradient-20);}.cls-32{clip-path:url(#clip-path-7);}.cls-33{fill:url(#linear-gradient-21);}.cls-34{clip-path:url(#clip-path-8);}.cls-35{fill:url(#linear-gradient-22);}.cls-36{clip-path:url(#clip-path-9);}.cls-37{fill:url(#linear-gradient-23);}.cls-38{fill:#00fee0;}.cls-39{clip-path:url(#clip-path-10);}.cls-40{mask:url(#mask-5);}.cls-41{fill:url(#linear-gradient-24);}.cls-42{clip-path:url(#clip-path-11);}.cls-43{mask:url(#mask-6);}.cls-44{fill:url(#linear-gradient-25);}.cls-45{clip-path:url(#clip-path-12);}.cls-46{mask:url(#mask-7);}.cls-47{fill:url(#linear-gradient-26);}.cls-48{clip-path:url(#clip-path-13);}.cls-49{mask:url(#mask-8);}.cls-50{fill:url(#linear-gradient-27);}.cls-51{clip-path:url(#clip-path-14);}.cls-52{fill:url(#linear-gradient-28);}.cls-53{clip-path:url(#clip-path-15);}.cls-54{fill:url(#linear-gradient-29);}.cls-55{clip-path:url(#clip-path-16);}.cls-56{fill:url(#linear-gradient-30);}.cls-57{clip-path:url(#clip-path-17);}.cls-58{fill:url(#linear-gradient-31);}.cls-59{clip-path:url(#clip-path-18);}.cls-60{mask:url(#mask-9);}.cls-61{fill:url(#linear-gradient-32);}.cls-62{clip-path:url(#clip-path-19);}.cls-63{mask:url(#mask-10);}.cls-64{fill:url(#linear-gradient-33);}.cls-65{clip-path:url(#clip-path-20);}.cls-66{mask:url(#mask-11);}.cls-67{fill:url(#linear-gradient-34);}.cls-68{clip-path:url(#clip-path-21);}.cls-69{mask:url(#mask-12);}.cls-70{fill:url(#linear-gradient-35);}.cls-71{clip-path:url(#clip-path-22);}.cls-72{mask:url(#mask-13);}.cls-73{fill:url(#linear-gradient-36);}.cls-74{clip-path:url(#clip-path-23);}.cls-75{mask:url(#mask-14);}.cls-76{fill:url(#linear-gradient-37);}.cls-77{clip-path:url(#clip-path-24);}.cls-78{fill:url(#linear-gradient-38);}.cls-79{clip-path:url(#clip-path-25);}.cls-80{fill:url(#linear-gradient-39);}.cls-81{clip-path:url(#clip-path-26);}.cls-82{fill:url(#linear-gradient-40);}.cls-83{clip-path:url(#clip-path-27);}.cls-84{fill:url(#linear-gradient-41);}.cls-85{clip-path:url(#clip-path-28);}.cls-86{fill:url(#linear-gradient-42);}.cls-87{clip-path:url(#clip-path-29);}.cls-88{fill:url(#linear-gradient-43);}.cls-89{clip-path:url(#clip-path-30);}.cls-90{fill:url(#linear-gradient-44);}.cls-91{clip-path:url(#clip-path-31);}.cls-92{fill:url(#linear-gradient-45);}.cls-93{clip-path:url(#clip-path-32);}.cls-94{fill:url(#linear-gradient-46);}.cls-95{clip-path:url(#clip-path-33);}.cls-96{fill:url(#linear-gradient-47);}.cls-97{clip-path:url(#clip-path-34);}.cls-98{fill:url(#linear-gradient-48);}.cls-99{clip-path:url(#clip-path-35);}.cls-100{fill:url(#linear-gradient-49);}.cls-101{clip-path:url(#clip-path-36);}.cls-102{fill:url(#linear-gradient-50);}</style><linearGradient id="linear-gradient" x1="500.08" y1="1380.61" x2="500.08" y2="1249.68" gradientTransform="translate(394.6 -726.72)" gradientUnits="userSpaceOnUse"><stop offset="0" stop-color="#fff"/><stop offset="1"/></linearGradient><linearGradient id="linear-gradient-2" x1="494.75" y1="1387.85" x2="494.75" y2="1252.24" gradientTransform="translate(357.21 -726.72)" xlink:href="#linear-gradient"/><linearGradient id="linear-gradient-3" x1="521.55" y1="1343.47" x2="521.55" y2="1245.27" gradientTransform="translate(541.21 -641.19)" xlink:href="#linear-gradient"/><linearGradient id="linear-gradient-4" x1="516.8" y1="1343.47" x2="516.8" y2="1245.27" gradientTransform="translate(541.21 -641.19)" xlink:href="#linear-gradient"/><linearGradient id="linear-gradient-5" x1="516.22" y1="1360.23" x2="516.22" y2="1232.76" gradientTransform="translate(503.83 -641.19)" xlink:href="#linear-gradient"/><linearGradient id="linear-gradient-6" x1="512.69" y1="1360.23" x2="512.69" y2="1232.74" gradientTransform="translate(512.12 -641.19)" xlink:href="#linear-gradient"/><linearGradient id="linear-gradient-7" x1="491.2" y1="1387.85" x2="491.2" y2="1252.24" gradientTransform="translate(365.54 -726.72)" xlink:href="#linear-gradient"/><linearGradient id="linear-gradient-8" x1="507.13" y1="1430.13" x2="507.13" y2="1148.97" gradientTransform="translate(442.7 -698.66)" xlink:href="#linear-gradient"/><linearGradient id="linear-gradient-9" x1="501.8" y1="1427.48" x2="501.8" y2="1176.46" gradientTransform="translate(405.32 -698.66)" xlink:href="#linear-gradient"/><linearGradient id="linear-gradient-10" x1="498.25" y1="1427.48" x2="498.25" y2="1176.46" gradientTransform="translate(413.65 -698.66)" xlink:href="#linear-gradient"/><linearGradient id="linear-gradient-11" x1="514.2" y1="1393.67" x2="514.2" y2="1101.83" gradientTransform="translate(491 -671.55)" xlink:href="#linear-gradient"/><linearGradient id="linear-gradient-12" x1="509.46" y1="1393.67" x2="509.46" y2="1101.83" gradientTransform="translate(491 -671.55)" xlink:href="#linear-gradient"/><linearGradient id="linear-gradient-13" x1="508.87" y1="1408.43" x2="508.87" y2="1102.08" gradientTransform="translate(453.62 -671.55)" xlink:href="#linear-gradient"/><linearGradient id="linear-gradient-14" x1="505.32" y1="1408.43" x2="505.32" y2="1102.08" gradientTransform="translate(461.94 -671.55)" xlink:href="#linear-gradient"/><clipPath id="clip-path" transform="translate(-806.77 -336.68)"><polygon id="SVGID" class="cls-15" points="867.09 571.9 806.77 606.96 1044.4 744.16 1104.72 709.1 867.09 571.9"/></clipPath><linearGradient id="linear-gradient-15" x1="151" y1="528.28" x2="149.06" y2="329.54" gradientUnits="userSpaceOnUse"><stop offset="0" stop-color="#858bf2"/><stop offset="1" stop-color="#1d2297"/></linearGradient><clipPath id="clip-path-2" transform="translate(-806.77 -336.68)"><polygon id="SVGID-2" data-name="SVGID" class="cls-15" points="873.4 585.55 873.4 633.35 915.96 608.62 915.96 560.82 873.4 585.55"/></clipPath><mask id="mask" x="66.63" y="224.14" width="42.56" height="72.53" maskUnits="userSpaceOnUse"><g transform="translate(-806.77 -336.68)"><rect class="cls-1" x="873.4" y="560.82" width="42.56" height="72.53"/></g></mask><linearGradient id="linear-gradient-16" x1="87.91" y1="296.67" x2="87.91" y2="224.14" gradientUnits="userSpaceOnUse"><stop offset="0" stop-color="#00c8cd"/><stop offset="1" stop-color="#152797"/></linearGradient><clipPath id="clip-path-3" transform="translate(-806.77 -336.68)"><polygon id="SVGID-3" data-name="SVGID" class="cls-15" points="830.54 560.81 830.54 608.61 873.4 633.35 873.4 585.55 830.54 560.81"/></clipPath><mask id="mask-2" x="23.77" y="224.13" width="42.86" height="72.54" maskUnits="userSpaceOnUse"><g transform="translate(-806.77 -336.68)"><rect class="cls-2" x="830.54" y="560.81" width="42.86" height="72.54"/></g></mask><linearGradient id="linear-gradient-17" x1="45.2" y1="296.67" x2="45.2" y2="224.13" gradientUnits="userSpaceOnUse"><stop offset="0" stop-color="#00fee0"/><stop offset="1" stop-color="#1d2297"/></linearGradient><clipPath id="clip-path-4" transform="translate(-806.77 -336.68)"><polygon id="SVGID-4" data-name="SVGID" class="cls-15" points="840.08 614.12 873.4 633.35 873.4 585.55 840.08 566.32 840.08 614.12"/></clipPath><mask id="mask-3" x="33.31" y="229.64" width="33.32" height="67.03" maskUnits="userSpaceOnUse"><g transform="translate(-806.77 -336.68)"><rect class="cls-7" x="840.08" y="566.32" width="33.32" height="67.03"/></g></mask><linearGradient id="linear-gradient-18" x1="49.97" y1="296.67" x2="49.97" y2="224.13" xlink:href="#linear-gradient-17"/><clipPath id="clip-path-5" transform="translate(-806.77 -336.68)"><polygon id="SVGID-5" data-name="SVGID" class="cls-15" points="928.55 561.04 928.55 665.52 971.11 640.79 971.11 536.31 928.55 561.04"/></clipPath><mask id="mask-4" x="121.78" y="199.63" width="42.56" height="129.22" maskUnits="userSpaceOnUse"><g transform="translate(-806.77 -336.68)"><rect class="cls-8" x="928.55" y="536.31" width="42.56" height="129.22"/></g></mask><linearGradient id="linear-gradient-19" x1="143.07" y1="328.85" x2="143.07" y2="199.63" xlink:href="#linear-gradient-16"/><clipPath id="clip-path-6" transform="translate(-806.77 -336.68)"><path id="SVGID-6" data-name="SVGID" class="cls-15" d="M833.5,572.45l34,19.61a12.56,12.56,0,0,0,6,1.33,12.39,12.39,0,0,0,5.93-1.32l33.69-19.58-40-23.07Z"/></clipPath><linearGradient id="linear-gradient-20" x1="26.73" y1="234.73" x2="106.3" y2="234.73" xlink:href="#linear-gradient-15"/><clipPath id="clip-path-7" transform="translate(-806.77 -336.68)"><path id="SVGID-7" data-name="SVGID" class="cls-15" d="M916,572.9V560.84h-8.62L873.1,541.05l-34,19.74h-8.55v12.06l36.48,21.06a15.11,15.11,0,0,0,12.77,0Z"/></clipPath><linearGradient id="linear-gradient-21" x1="23.81" y1="231.51" x2="109.23" y2="231.51" xlink:href="#linear-gradient-15"/><clipPath id="clip-path-8" transform="translate(-806.77 -336.68)"><path id="SVGID-8" data-name="SVGID" class="cls-15" d="M830.57,560.79l36.48,21.06a13.51,13.51,0,0,0,6.41,1.42,13.36,13.36,0,0,0,6.36-1.41l36.18-21-42.9-24.77Z"/></clipPath><linearGradient id="linear-gradient-22" x1="23.81" y1="222.99" x2="109.23" y2="222.99" gradientUnits="userSpaceOnUse"><stop offset="0" stop-color="#9aa0f2"/><stop offset="1" stop-color="#ccd1f7"/></linearGradient><clipPath id="clip-path-9" transform="translate(-806.77 -336.68)"><path id="SVGID-9" data-name="SVGID" class="cls-15" d="M873.44,578.54a9.85,9.85,0,0,1-4.59-1l-29.26-16.89,33.54-19.49L907,560.74l-29,16.85a10,10,0,0,1-4.55.95"/></clipPath><linearGradient id="linear-gradient-23" x1="37.21" y1="223.19" x2="95.82" y2="223.19" gradientUnits="userSpaceOnUse"><stop offset="0" stop-color="#fecf58"/><stop offset="1" stop-color="#fefaba"/></linearGradient><clipPath id="clip-path-10" transform="translate(-806.77 -336.68)"><polygon id="SVGID-10" data-name="SVGID" class="cls-15" points="885.69 536.3 885.69 640.78 928.55 665.53 928.55 561.04 885.69 536.3"/></clipPath><mask id="mask-5" x="78.93" y="199.62" width="42.86" height="129.23" maskUnits="userSpaceOnUse"><g transform="translate(-806.77 -336.68)"><rect class="cls-9" x="885.69" y="536.3" width="42.86" height="129.23"/></g></mask><linearGradient id="linear-gradient-24" x1="100.35" y1="328.85" x2="100.35" y2="199.62" xlink:href="#linear-gradient-17"/><clipPath id="clip-path-11" transform="translate(-806.77 -336.68)"><polygon id="SVGID-11" data-name="SVGID" class="cls-15" points="895.24 646.29 928.55 665.53 928.55 561.04 895.24 541.81 895.24 646.29"/></clipPath><mask id="mask-6" x="88.47" y="205.13" width="33.32" height="123.72" maskUnits="userSpaceOnUse"><g transform="translate(-806.77 -336.68)"><rect class="cls-10" x="895.23" y="541.81" width="33.32" height="123.72"/></g></mask><linearGradient id="linear-gradient-25" x1="105.13" y1="328.85" x2="105.13" y2="199.62" xlink:href="#linear-gradient-17"/><clipPath id="clip-path-12" transform="translate(-806.77 -336.68)"><polygon id="SVGID-12" data-name="SVGID" class="cls-15" points="983.92 549.24 983.92 696.61 1026.49 671.87 1026.49 524.5 983.92 549.24"/></clipPath><mask id="mask-7" x="177.16" y="187.82" width="42.56" height="172.1" maskUnits="userSpaceOnUse"><g transform="translate(-806.77 -336.68)"><rect class="cls-11" x="983.92" y="524.5" width="42.56" height="172.1"/></g></mask><linearGradient id="linear-gradient-26" x1="198.44" y1="359.93" x2="198.44" y2="187.82" xlink:href="#linear-gradient-16"/><clipPath id="clip-path-13" transform="translate(-806.77 -336.68)"><polygon id="SVGID-13" data-name="SVGID" class="cls-15" points="983.92 549.24 983.92 696.61 1017.01 677.37 1017.01 530 983.92 549.24"/></clipPath><mask id="mask-8" x="177.16" y="193.33" width="33.09" height="166.6" maskUnits="userSpaceOnUse"><g transform="translate(-806.77 -336.68)"><rect class="cls-12" x="983.92" y="530" width="33.09" height="166.6"/></g></mask><linearGradient id="linear-gradient-27" x1="193.7" y1="359.93" x2="193.7" y2="187.82" xlink:href="#linear-gradient-16"/><clipPath id="clip-path-14" transform="translate(-806.77 -336.68)"><path id="SVGID-14" data-name="SVGID" class="cls-15" d="M888.65,547.93l34,19.62a14.12,14.12,0,0,0,11.9,0L968.22,548l-40-23.07Z"/></clipPath><linearGradient id="linear-gradient-28" x1="81.89" y1="210.21" x2="161.46" y2="210.21" xlink:href="#linear-gradient-15"/><clipPath id="clip-path-15" transform="translate(-806.77 -336.68)"><path id="SVGID-15" data-name="SVGID" class="cls-15" d="M971.15,548.39V536.32h-8.62l-34.27-19.79-34,19.75h-8.54v12.06L922.2,569.4a13.52,13.52,0,0,0,6.41,1.41,13.37,13.37,0,0,0,6.36-1.4Z"/></clipPath><linearGradient id="linear-gradient-29" x1="78.96" y1="207" x2="164.38" y2="207" xlink:href="#linear-gradient-15"/><clipPath id="clip-path-16" transform="translate(-806.77 -336.68)"><path id="SVGID-16" data-name="SVGID" class="cls-15" d="M885.73,536.28l36.47,21.06a13.64,13.64,0,0,0,6.41,1.41,13.37,13.37,0,0,0,6.36-1.4l36.18-21-42.89-24.76Z"/></clipPath><linearGradient id="linear-gradient-30" x1="78.96" y1="198.48" x2="164.38" y2="198.48" xlink:href="#linear-gradient-22"/><clipPath id="clip-path-17" transform="translate(-806.77 -336.68)"><path id="SVGID-17" data-name="SVGID" class="cls-15" d="M928.59,554a10,10,0,0,1-4.59-1l-29.26-16.89,33.54-19.49,33.86,19.54-29,16.85a9.94,9.94,0,0,1-4.55.95"/></clipPath><linearGradient id="linear-gradient-31" x1="92.36" y1="198.68" x2="150.98" y2="198.68" xlink:href="#linear-gradient-23"/><clipPath id="clip-path-18" transform="translate(-806.77 -336.68)"><polygon id="SVGID-18" data-name="SVGID" class="cls-15" points="941.07 524.49 941.07 671.86 983.92 696.6 983.92 549.24 941.07 524.49"/></clipPath><mask id="mask-9" x="134.3" y="187.81" width="42.86" height="172.11" maskUnits="userSpaceOnUse"><g transform="translate(-806.77 -336.68)"><rect class="cls-13" x="941.07" y="524.49" width="42.86" height="172.11"/></g></mask><linearGradient id="linear-gradient-32" x1="155.73" y1="359.92" x2="155.73" y2="187.81" xlink:href="#linear-gradient-17"/><clipPath id="clip-path-19" transform="translate(-806.77 -336.68)"><polygon id="SVGID-19" data-name="SVGID" class="cls-15" points="950.61 677.37 983.92 696.6 983.92 549.24 950.61 530 950.61 677.37"/></clipPath><mask id="mask-10" x="143.84" y="193.32" width="33.32" height="166.6" maskUnits="userSpaceOnUse"><g transform="translate(-806.77 -336.68)"><rect class="cls-14" x="950.61" y="530" width="33.32" height="166.6"/></g></mask><linearGradient id="linear-gradient-33" x1="160.5" y1="359.92" x2="160.5" y2="187.82" xlink:href="#linear-gradient-17"/><clipPath id="clip-path-20" transform="translate(-806.77 -336.68)"><polygon id="SVGID-20" data-name="SVGID" class="cls-15" points="1041.48 628.68 1041.48 731.4 1084.05 706.67 1084.05 603.94 1041.48 628.68"/></clipPath><mask id="mask-11" x="234.72" y="267.26" width="42.56" height="127.46" maskUnits="userSpaceOnUse"><g transform="translate(-806.77 -336.68)"><rect class="cls-3" x="1041.48" y="603.94" width="42.56" height="127.46"/></g></mask><linearGradient id="linear-gradient-34" x1="256" y1="394.73" x2="256" y2="267.26" xlink:href="#linear-gradient-16"/><clipPath id="clip-path-21" transform="translate(-806.77 -336.68)"><polygon id="SVGID-21" data-name="SVGID" class="cls-15" points="1041.48 628.68 1041.48 731.4 1074.54 712.19 1074.54 609.46 1041.48 628.68"/></clipPath><mask id="mask-12" x="234.72" y="272.79" width="33.06" height="121.94" maskUnits="userSpaceOnUse"><g transform="translate(-806.77 -336.68)"><rect class="cls-4" x="1041.48" y="609.46" width="33.06" height="121.94"/></g></mask><linearGradient id="linear-gradient-35" x1="251.25" y1="394.73" x2="251.25" y2="267.25" xlink:href="#linear-gradient-16"/><clipPath id="clip-path-22" transform="translate(-806.77 -336.68)"><polygon id="SVGID-22" data-name="SVGID" class="cls-15" points="998.63 603.93 998.63 706.66 1041.48 731.4 1041.48 628.68 998.63 603.93"/></clipPath><mask id="mask-13" x="191.86" y="267.25" width="42.86" height="127.47" maskUnits="userSpaceOnUse"><g transform="translate(-806.77 -336.68)"><rect class="cls-5" x="998.63" y="603.93" width="42.86" height="127.47"/></g></mask><linearGradient id="linear-gradient-36" x1="213.29" y1="394.72" x2="213.29" y2="267.25" xlink:href="#linear-gradient-17"/><clipPath id="clip-path-23" transform="translate(-806.77 -336.68)"><polygon id="SVGID-23" data-name="SVGID" class="cls-15" points="1008.13 712.15 1041.48 731.4 1041.48 628.68 1008.13 609.42 1008.13 712.15"/></clipPath><mask id="mask-14" x="201.37" y="272.74" width="33.35" height="121.98" maskUnits="userSpaceOnUse"><g transform="translate(-806.77 -336.68)"><rect class="cls-6" x="1008.13" y="609.42" width="33.35" height="121.98"/></g></mask><linearGradient id="linear-gradient-37" x1="218.04" y1="394.72" x2="218.04" y2="267.25" xlink:href="#linear-gradient-17"/><clipPath id="clip-path-24" transform="translate(-806.77 -336.68)"><path id="SVGID-24" data-name="SVGID" class="cls-15" d="M1001.55,615.57l34,19.61a12.56,12.56,0,0,0,6,1.33,12.39,12.39,0,0,0,5.93-1.32l33.69-19.58-39.95-23.07Z"/></clipPath><linearGradient id="linear-gradient-38" x1="194.79" y1="277.85" x2="274.36" y2="277.85" xlink:href="#linear-gradient-15"/><clipPath id="clip-path-25" transform="translate(-806.77 -336.68)"><path id="SVGID-25" data-name="SVGID" class="cls-15" d="M1084.05,616V604h-8.62l-34.27-19.78-34,19.75h-8.54V616L1035.1,637a13.51,13.51,0,0,0,6.41,1.42,13.36,13.36,0,0,0,6.36-1.41Z"/></clipPath><linearGradient id="linear-gradient-39" x1="191.86" y1="274.63" x2="277.28" y2="274.63" xlink:href="#linear-gradient-15"/><clipPath id="clip-path-26" transform="translate(-806.77 -336.68)"><path id="SVGID-26" data-name="SVGID" class="cls-15" d="M998.63,603.91,1035.1,625a13.51,13.51,0,0,0,6.41,1.42,13.36,13.36,0,0,0,6.36-1.41l36.18-21-42.89-24.76Z"/></clipPath><linearGradient id="linear-gradient-40" x1="191.86" y1="266.11" x2="277.28" y2="266.11" xlink:href="#linear-gradient-22"/><clipPath id="clip-path-27" transform="translate(-806.77 -336.68)"><path id="SVGID-27" data-name="SVGID" class="cls-15" d="M1041.49,621.67a9.87,9.87,0,0,1-4.59-1l-29.26-16.89,33.54-19.49L1075,603.86l-29,16.85a9.93,9.93,0,0,1-4.55,1"/></clipPath><linearGradient id="linear-gradient-41" x1="205.26" y1="266.31" x2="263.88" y2="266.31" xlink:href="#linear-gradient-23"/><clipPath id="clip-path-28" transform="translate(-806.77 -336.68)"><path id="SVGID-28" data-name="SVGID" class="cls-15" d="M944,536.13l34,19.62a12.67,12.67,0,0,0,6,1.32,12.39,12.39,0,0,0,5.93-1.32l33.7-19.58-40-23.06Z"/></clipPath><linearGradient id="linear-gradient-42" x1="137.26" y1="198.41" x2="216.83" y2="198.41" xlink:href="#linear-gradient-15"/><clipPath id="clip-path-29" transform="translate(-806.77 -336.68)"><path id="SVGID-29" data-name="SVGID" class="cls-15" d="M1026.52,536.58V524.52h-8.62l-34.27-19.78-34,19.75H941.1v12.06l36.48,21.06a15.11,15.11,0,0,0,12.77,0Z"/></clipPath><linearGradient id="linear-gradient-43" x1="134.33" y1="195.19" x2="219.75" y2="195.19" xlink:href="#linear-gradient-15"/><clipPath id="clip-path-30" transform="translate(-806.77 -336.68)"><path id="SVGID-30" data-name="SVGID" class="cls-15" d="M941.1,524.47l36.48,21.06a15.11,15.11,0,0,0,12.77,0l36.17-21-42.89-24.76Z"/></clipPath><linearGradient id="linear-gradient-44" x1="134.33" y1="186.67" x2="219.75" y2="186.67" xlink:href="#linear-gradient-22"/><clipPath id="clip-path-31" transform="translate(-806.77 -336.68)"><path id="SVGID-31" data-name="SVGID" class="cls-15" d="M984,542.23a9.87,9.87,0,0,1-4.59-1l-29.26-16.89,33.54-19.49,33.86,19.55-29,16.85a10.07,10.07,0,0,1-4.55,1"/></clipPath><linearGradient id="linear-gradient-45" x1="147.73" y1="186.87" x2="206.35" y2="186.87" xlink:href="#linear-gradient-23"/><clipPath id="clip-path-32" transform="translate(-806.77 -336.68)"><polygon id="SVGID-32" data-name="SVGID" class="cls-15" points="875.32 336.68 1113.47 474.18 1113.47 477.33 875.32 339.83 875.32 336.68"/></clipPath><linearGradient id="linear-gradient-46" x1="227.44" y1="314.15" x2="209.32" y2="203.16" xlink:href="#linear-gradient-15"/><clipPath id="clip-path-33" transform="translate(-806.77 -336.68)"><polygon id="SVGID-33" data-name="SVGID" class="cls-15" points="878.04 341.4 878.04 484.83 875.32 483.25 875.32 339.83 878.04 341.4"/></clipPath><linearGradient id="linear-gradient-47" x1="70.37" y1="327.47" x2="70.16" y2="213.05" xlink:href="#linear-gradient-15"/><clipPath id="clip-path-34" transform="translate(-806.77 -336.68)"><polygon id="SVGID-34" data-name="SVGID" class="cls-15" points="875.32 371.49 1113.47 508.98 1113.47 512.13 875.32 374.64 875.32 371.49"/></clipPath><linearGradient id="linear-gradient-48" x1="227.44" y1="348.95" x2="209.32" y2="237.97" xlink:href="#linear-gradient-15"/><clipPath id="clip-path-35" transform="translate(-806.77 -336.68)"><polygon id="SVGID-35" data-name="SVGID" class="cls-15" points="875.32 406.29 1113.47 543.79 1113.47 546.94 875.32 409.44 875.32 406.29"/></clipPath><linearGradient id="linear-gradient-49" x1="227.45" y1="383.76" x2="209.32" y2="272.78" xlink:href="#linear-gradient-15"/><clipPath id="clip-path-36" transform="translate(-806.77 -336.68)"><path id="SVGID-36" data-name="SVGID" class="cls-15" d="M1098.45,568.17a1.36,1.36,0,0,1-2.69.37c-.06-.4-18.59-137.37-49.73-147.47-15-4.88-27.32.6-38.8,5.73-12.7,5.68-24.47,10.94-38.24,2.34-14.14-8.84-23.22-25.8-30.91-40.16-6.34-11.84-11.7-21.85-17.76-23.42-7.38-1.92-16.72,1.33-26.06,11.49-8,8.73-16,22.49-22.67,42.37a1.36,1.36,0,1,1-2.58-.86c6.81-20.28,15-34.37,23.24-43.36,10.11-11,20.44-14.43,28.75-12.28,7.21,1.87,12.83,12.37,19.48,24.78,7.53,14.06,16.42,30.67,29.94,39.12,12.56,7.85,23.69,2.87,35.71-2.5s24.7-11.05,40.74-5.84c32.78,10.63,51.53,149.29,51.58,149.69"/></clipPath><linearGradient id="linear-gradient-50" x1="77.1" y1="128.61" x2="276.75" y2="128.61" xlink:href="#linear-gradient-23"/></defs><g class="cls-16"><rect class="cls-17" y="235.23" width="297.96" height="172.26"/></g><g class="cls-18"><g class="cls-19"><rect class="cls-20" x="66.63" y="224.14" width="42.56" height="72.53"/></g></g><g class="cls-21"><g class="cls-22"><rect class="cls-23" x="23.77" y="224.13" width="42.86" height="72.54"/></g></g><g class="cls-24"><g class="cls-25"><rect class="cls-26" x="33.31" y="229.64" width="33.32" height="67.03"/></g></g><g class="cls-27"><g class="cls-28"><rect class="cls-29" x="121.78" y="199.63" width="42.56" height="129.22"/></g></g><g class="cls-30"><rect class="cls-31" x="26.73" y="212.75" width="79.57" height="43.96"/></g><g class="cls-32"><rect class="cls-33" x="23.81" y="204.37" width="85.42" height="54.28"/></g><g class="cls-34"><rect class="cls-35" x="23.81" y="199.4" width="85.42" height="47.19"/></g><g class="cls-36"><rect class="cls-37" x="32.82" y="204.52" width="67.39" height="37.35"/></g><path class="cls-38" d="M879.82,586.64a13.4,13.4,0,0,1-6.36,1.4,13.64,13.64,0,0,1-6.41-1.41l-36.48-21.06v1.75l36.48,21.06a13.64,13.64,0,0,0,6.41,1.41,13.4,13.4,0,0,0,6.36-1.4l36.17-21v-1.75Z" transform="translate(-806.77 -336.68)"/><g class="cls-39"><g class="cls-40"><rect class="cls-41" x="78.93" y="199.62" width="42.86" height="129.23"/></g></g><g class="cls-42"><g class="cls-43"><rect class="cls-44" x="88.47" y="205.13" width="33.32" height="123.72"/></g></g><g class="cls-45"><g class="cls-46"><rect class="cls-47" x="177.16" y="187.82" width="42.56" height="172.1"/></g></g><g class="cls-48"><g class="cls-49"><rect class="cls-50" x="177.16" y="193.33" width="33.09" height="166.6"/></g></g><g class="cls-51"><rect class="cls-52" x="81.89" y="188.23" width="79.57" height="43.96"/></g><g class="cls-53"><rect class="cls-54" x="78.96" y="179.85" width="85.42" height="54.28"/></g><g class="cls-55"><rect class="cls-56" x="78.96" y="174.88" width="85.42" height="47.19"/></g><g class="cls-57"><rect class="cls-58" x="87.97" y="180.01" width="67.4" height="37.35"/></g><path class="cls-38" d="M935,562.12a13.36,13.36,0,0,1-6.36,1.41,13.54,13.54,0,0,1-6.41-1.42l-36.47-21.06v1.75l36.47,21.06a13.54,13.54,0,0,0,6.41,1.42,13.36,13.36,0,0,0,6.36-1.41l36.18-21V541.1Z" transform="translate(-806.77 -336.68)"/><g class="cls-59"><g class="cls-60"><rect class="cls-61" x="134.3" y="187.81" width="42.86" height="172.11"/></g></g><g class="cls-62"><g class="cls-63"><rect class="cls-64" x="143.84" y="193.32" width="33.32" height="166.6"/></g></g><g class="cls-65"><g class="cls-66"><rect class="cls-67" x="234.72" y="267.26" width="42.56" height="127.46"/></g></g><g class="cls-68"><g class="cls-69"><rect class="cls-70" x="234.72" y="272.79" width="33.06" height="121.94"/></g></g><g class="cls-71"><g class="cls-72"><rect class="cls-73" x="191.86" y="267.25" width="42.86" height="127.47"/></g></g><g class="cls-74"><g class="cls-75"><rect class="cls-76" x="201.37" y="272.74" width="33.35" height="121.98"/></g></g><g class="cls-77"><rect class="cls-78" x="194.79" y="255.87" width="79.57" height="43.96"/></g><g class="cls-79"><rect class="cls-80" x="191.86" y="247.49" width="85.42" height="54.28"/></g><g class="cls-81"><rect class="cls-82" x="191.86" y="242.52" width="85.42" height="47.19"/></g><g class="cls-83"><rect class="cls-84" x="200.87" y="247.64" width="67.39" height="37.35"/></g><path class="cls-38" d="M1047.87,629.76a13.37,13.37,0,0,1-6.36,1.4,13.64,13.64,0,0,1-6.41-1.41l-36.47-21.06v1.75l36.47,21.06a13.64,13.64,0,0,0,6.41,1.41,13.37,13.37,0,0,0,6.36-1.4l36.18-21v-1.75Z" transform="translate(-806.77 -336.68)"/><g class="cls-85"><rect class="cls-86" x="137.26" y="176.43" width="79.57" height="43.96"/></g><g class="cls-87"><rect class="cls-88" x="134.33" y="168.05" width="85.42" height="54.28"/></g><g class="cls-89"><rect class="cls-90" x="134.33" y="163.08" width="85.42" height="47.19"/></g><g class="cls-91"><rect class="cls-92" x="143.35" y="168.2" width="67.4" height="37.35"/></g><path class="cls-38" d="M990.35,550.32a13.44,13.44,0,0,1-6.37,1.4,13.59,13.59,0,0,1-6.4-1.41L941.1,529.25V531l36.48,21.06a13.59,13.59,0,0,0,6.4,1.41,13.44,13.44,0,0,0,6.37-1.4l36.17-21V529.3Z" transform="translate(-806.77 -336.68)"/><g class="cls-93"><rect class="cls-94" x="68.55" width="238.15" height="140.65"/></g><g class="cls-95"><rect class="cls-96" x="68.55" y="3.15" width="2.73" height="145"/></g><g class="cls-97"><rect class="cls-98" x="68.55" y="34.81" width="238.15" height="140.65"/></g><g class="cls-99"><rect class="cls-100" x="68.55" y="69.61" width="238.15" height="140.65"/></g><path class="cls-38" d="M1112.68,559.91a1.36,1.36,0,1,1-2.7.36c0-.39-18.58-137.36-49.72-147.47-15.06-4.88-27.33.61-38.8,5.74-12.7,5.67-24.48,10.94-38.25,2.33C969.07,412,960,395.07,952.3,380.71c-6.33-11.84-11.69-21.85-17.76-23.42-7.37-1.91-16.72,1.34-26.06,11.49-8,8.73-16,22.5-22.66,42.38a1.36,1.36,0,0,1-2.58-.87c6.8-20.28,15-34.37,23.24-43.35,10.1-11,20.43-14.44,28.75-12.28,7.21,1.87,12.83,12.36,19.47,24.77,7.53,14.06,16.42,30.67,29.95,39.13,12.55,7.84,23.69,2.86,35.7-2.51s24.7-11,40.75-5.84c32.78,10.64,51.52,149.3,51.58,149.7" transform="translate(-806.77 -336.68)"/><g class="cls-101"><rect class="cls-102" x="62.01" y="24.09" width="229.78" height="209.04"/></g></svg>